<svg width="25" height="24" viewBox="0 0 25 24" fill="none" xmlns="http://www.w3.org/2000/svg">
<g clip-path="url(#clip0_751_16221)">
<path d="M9.5 7H6.5C5.96957 7 5.46086 7.21071 5.08579 7.58579C4.71071 7.96086 4.5 8.46957 4.5 9V18C4.5 18.5304 4.71071 19.0391 5.08579 19.4142C5.46086 19.7893 5.96957 20 6.5 20H15.5C16.0304 20 16.5391 19.7893 16.9142 19.4142C17.2893 19.0391 17.5 18.5304 17.5 18V15" stroke="#525252" stroke-width="1.5" stroke-linecap="round" stroke-linejoin="round"/>
<path d="M9.5 14.9963H12.5L21 6.49632C21.3978 6.0985 21.6213 5.55893 21.6213 4.99632C21.6213 4.43371 21.3978 3.89414 21 3.49632C20.6022 3.0985 20.0626 2.875 19.5 2.875C18.9374 2.875 18.3978 3.0985 18 3.49632L9.5 11.9963V14.9963Z" stroke="#525252" stroke-width="1.5" stroke-linecap="round" stroke-linejoin="round"/>
<path d="M16.5 5L19.5 8" stroke="#525252" stroke-width="1.5" stroke-linecap="round" stroke-linejoin="round"/>
</g>
<defs>
<clipPath id="clip0_751_16221">
<rect width="24" height="24" fill="white" transform="translate(0.5)"/>
</clipPath>
</defs>
</svg>
