<svg width="512" height="512" viewBox="0 0 512 512" fill="none" xmlns="http://www.w3.org/2000/svg">
<g clip-path="url(#clip0_122_32)">
<path d="M256.628 0C115.47 0 0.633789 114.835 0.633789 256C0.633789 397.16 115.47 512.001 256.63 512.001C397.786 512.001 512.622 397.16 512.622 256C512.62 114.835 397.784 0 256.628 0ZM256.628 491.13C126.982 491.13 21.504 385.643 21.504 256C21.504 126.352 126.982 20.8713 256.629 20.8713C386.272 20.8713 491.749 126.352 491.749 256C491.749 385.643 386.271 491.13 256.628 491.13Z" fill="black"/>
<path d="M388.841 153.921L206.816 335.941L124.414 253.543C120.339 249.468 113.734 249.468 109.655 253.543C105.58 257.618 105.58 264.221 109.655 268.302L199.436 358.079C201.474 360.117 204.145 361.134 206.816 361.134C209.487 361.134 212.158 360.118 214.195 358.079L403.6 168.679C405.541 166.719 406.627 164.069 406.621 161.31C406.614 158.551 405.515 155.907 403.564 153.956C401.613 152.005 398.969 150.906 396.21 150.899C393.451 150.893 390.801 151.979 388.841 153.92V153.921Z" fill="black"/>
</g>
<defs>
<clipPath id="clip0_122_32">
<rect width="512" height="512" fill="white"/>
</clipPath>
</defs>
</svg>
