<svg width="596" height="470" viewBox="0 0 596 470" fill="none" xmlns="http://www.w3.org/2000/svg">
<path d="M272.404 60.9171H21.1646C18.1732 60.9171 15.7481 63.3422 15.7481 66.3337V356.294C15.7481 359.285 18.1732 361.711 21.1646 361.711H272.404C275.395 361.711 277.82 359.285 277.82 356.294V66.3337C277.82 63.3422 275.395 60.9171 272.404 60.9171Z" fill="white"/>
<path d="M272.404 61.2544C275.198 61.2544 277.476 63.5325 277.476 66.3268V356.294C277.476 359.088 275.205 361.366 272.404 361.366H21.1646C18.3703 361.366 16.0922 359.088 16.0922 356.294V66.3268C16.0922 63.5325 18.3703 61.2544 21.1646 61.2544H272.404ZM272.404 60.5661H21.1646C17.9849 60.5661 15.404 63.1471 15.404 66.3268V356.294C15.404 359.474 17.9849 362.055 21.1646 362.055H272.404C275.584 362.055 278.165 359.474 278.165 356.294V66.3268C278.165 63.1471 275.584 60.5661 272.404 60.5661Z" fill="#262626"/>
<path d="M235.094 123.699H58.4747V153.762H235.094V123.699Z" fill="white"/>
<path d="M234.75 124.044V153.418H58.8189V124.044H234.75ZM235.438 123.355H58.1306V154.106H235.438V123.355Z" fill="#262626"/>
<path d="M235.094 165.841H58.4747V195.904H235.094V165.841Z" fill="white"/>
<path d="M234.75 166.185V195.56H58.8189V166.185H234.75ZM235.438 165.497H58.1306V196.248H235.438V165.497Z" fill="#262626"/>
<path d="M235.094 206.09H58.4747V236.153H235.094V206.09Z" fill="white"/>
<path d="M234.75 206.434V235.809H58.8189V206.434H234.75ZM235.438 205.746H58.1306V236.497H235.438V205.746Z" fill="#262626"/>
<path d="M235.094 248.989H58.4747V279.052H235.094V248.989Z" fill="white"/>
<path d="M234.75 249.333V278.707H58.8189V249.333H234.75ZM235.438 248.645H58.1306V279.396H235.438V248.645Z" fill="#262626"/>
<path d="M235.438 307.118H58.1306V337.869H235.438V307.118Z" fill="#FCEE21"/>
<path d="M235.782 338.214H57.7865V306.774H235.782V338.214ZM58.4748 337.525H235.094V307.463H58.4748V337.525Z" fill="#262626"/>
<path d="M120.823 94.5451H121.973C122.007 94.9925 122.138 95.3916 122.372 95.7427C122.606 96.0937 122.929 96.369 123.336 96.5754C123.742 96.775 124.223 96.8783 124.781 96.8783C125.263 96.8783 125.662 96.8094 125.985 96.6649C126.309 96.5204 126.557 96.3208 126.722 96.0661C126.887 95.8115 126.97 95.5155 126.97 95.1714C126.97 94.8273 126.887 94.5382 126.715 94.3249C126.543 94.1115 126.302 93.9325 125.978 93.7811C125.662 93.6297 125.283 93.4921 124.85 93.3544C124.437 93.2237 124.017 93.0791 123.59 92.9071C123.163 92.735 122.771 92.5285 122.4 92.2876C122.028 92.0467 121.739 91.7508 121.512 91.3998C121.285 91.0488 121.174 90.6358 121.174 90.1472C121.174 89.6585 121.305 89.218 121.567 88.7982C121.828 88.3784 122.207 88.0411 122.716 87.7796C123.219 87.5181 123.831 87.3873 124.54 87.3873C125.655 87.3873 126.488 87.6901 127.045 88.2958C127.596 88.9014 127.864 89.7067 127.844 90.7046H126.694C126.674 89.9476 126.46 89.4107 126.054 89.0804C125.648 88.75 125.125 88.5848 124.478 88.5848C123.934 88.5848 123.466 88.7087 123.06 88.9565C122.654 89.2043 122.455 89.5966 122.455 90.1265C122.455 90.3605 122.503 90.567 122.592 90.7391C122.682 90.9111 122.833 91.0763 123.04 91.2277C123.246 91.3791 123.528 91.5237 123.886 91.6682C124.244 91.8127 124.685 91.971 125.201 92.1362C125.538 92.2463 125.889 92.3702 126.247 92.5216C126.605 92.673 126.935 92.8589 127.238 93.0791C127.541 93.2994 127.782 93.5884 127.974 93.9325C128.167 94.2767 128.257 94.7103 128.257 95.2333C128.257 95.7564 128.14 96.1969 127.899 96.6305C127.658 97.0641 127.286 97.4082 126.784 97.6766C126.281 97.9451 125.627 98.0758 124.829 98.0758C124.148 98.0758 123.57 97.9864 123.081 97.7936C122.599 97.6078 122.2 97.3669 121.89 97.071C121.581 96.775 121.346 96.4653 121.181 96.135C121.016 95.8115 120.906 95.5018 120.858 95.2196C120.81 94.9374 120.803 94.7103 120.844 94.552L120.823 94.5451Z" fill="#262626"/>
<path d="M131.491 86.7472V88.2958H129.833V86.7472H131.491ZM130.025 89.9338H131.299V97.9038H130.025V89.9338Z" fill="#262626"/>
<path d="M136.337 96.6511C135.772 96.6511 135.242 96.5135 134.733 96.2451C134.231 95.9767 133.818 95.5844 133.508 95.075C133.191 94.5657 133.04 93.9532 133.04 93.2443C133.04 92.5354 133.191 91.916 133.501 91.3998C133.811 90.8836 134.21 90.4844 134.712 90.2022C135.215 89.92 135.752 89.7824 136.337 89.7824C136.516 89.7824 136.688 89.7962 136.853 89.8237C137.018 89.8512 137.176 89.8925 137.321 89.9407H140.556V91.3103C140.101 91.3103 139.647 91.2277 139.193 91.0557C138.739 90.8836 138.353 90.7115 138.037 90.5326L137.975 90.4706C138.346 90.6702 138.649 90.9111 138.89 91.1864C139.131 91.4617 139.31 91.7714 139.434 92.1225C139.558 92.4666 139.62 92.8451 139.62 93.2443C139.62 93.9532 139.468 94.5657 139.165 95.075C138.862 95.5844 138.463 95.9767 137.961 96.2451C137.458 96.5135 136.922 96.6511 136.337 96.6511ZM138.684 101.097V100.746C138.684 100.182 138.539 99.7758 138.243 99.5212C137.954 99.2665 137.514 99.1357 136.929 99.1357H135.332C134.981 99.1357 134.678 99.1082 134.416 99.0463C134.155 98.9912 133.941 98.9017 133.769 98.7847C133.597 98.6677 133.473 98.5232 133.384 98.3511C133.301 98.1791 133.253 97.9864 133.253 97.7799C133.253 97.3738 133.377 97.071 133.618 96.8645C133.859 96.658 134.162 96.5273 134.527 96.4722C134.891 96.4171 135.235 96.4171 135.566 96.4722L136.33 96.6443C135.758 96.6787 135.311 96.7337 135.001 96.8163C134.685 96.8989 134.533 97.0847 134.533 97.36C134.533 97.5183 134.595 97.6491 134.719 97.7523C134.843 97.8556 135.022 97.9038 135.27 97.9038H136.929C137.479 97.9038 137.988 97.9795 138.443 98.1378C138.897 98.2892 139.269 98.5507 139.544 98.9224C139.819 99.2871 139.957 99.7896 139.957 100.43V101.097H138.684ZM136.337 95.4536C136.688 95.4536 137.011 95.371 137.314 95.1989C137.617 95.0269 137.865 94.7791 138.057 94.4487C138.25 94.1184 138.346 93.7123 138.346 93.2374C138.346 92.7625 138.257 92.3496 138.064 92.0192C137.878 91.682 137.631 91.4273 137.321 91.2553C137.011 91.0832 136.681 90.9937 136.33 90.9937C135.979 90.9937 135.648 91.0832 135.339 91.2553C135.029 91.4273 134.781 91.682 134.588 92.0123C134.396 92.3427 134.299 92.7488 134.299 93.2374C134.299 93.7261 134.396 94.1184 134.588 94.4487C134.781 94.7791 135.029 95.0269 135.339 95.1989C135.648 95.371 135.979 95.4536 136.33 95.4536H136.337Z" fill="#262626"/>
<path d="M142.063 89.9338H143.336V97.9038H142.063V89.9338ZM146.082 89.7755C146.509 89.7755 146.888 89.8375 147.232 89.9682C147.576 90.099 147.858 90.2848 148.092 90.5257C148.326 90.7735 148.505 91.0625 148.636 91.4136C148.766 91.7646 148.828 92.15 148.828 92.5836V97.9106H147.555V92.9002C147.555 92.2807 147.411 91.8196 147.122 91.5099C146.832 91.2002 146.406 91.0488 145.828 91.0488C145.394 91.0488 144.988 91.1589 144.616 91.386C144.245 91.6131 143.942 91.916 143.701 92.3014C143.46 92.6868 143.315 93.1411 143.26 93.6504L143.247 92.7281C143.302 92.2807 143.412 91.8747 143.57 91.5168C143.735 91.1589 143.942 90.8423 144.19 90.5808C144.437 90.3192 144.726 90.1196 145.05 89.982C145.373 89.8443 145.717 89.7755 146.075 89.7755H146.082Z" fill="#262626"/>
<path d="M161.74 93.9188V87.5387H163.013V93.9188C163.013 94.5038 162.944 95.02 162.807 95.4742C162.669 95.9285 162.476 96.3139 162.222 96.6443C161.974 96.9746 161.671 97.243 161.32 97.4495C160.969 97.656 160.577 97.8143 160.15 97.9106C159.723 98.0139 159.262 98.0621 158.774 98.0621C158.285 98.0621 157.803 98.0139 157.37 97.9106C156.936 97.8074 156.537 97.656 156.179 97.4495C155.821 97.243 155.518 96.9746 155.27 96.6443C155.023 96.3139 154.83 95.9216 154.685 95.4742C154.548 95.02 154.479 94.5038 154.479 93.9188V87.5387H155.752V93.9188C155.752 94.7172 155.89 95.3297 156.165 95.7495C156.44 96.1762 156.805 96.4653 157.266 96.6236C157.727 96.7819 158.223 96.8645 158.767 96.8645C159.31 96.8645 159.785 96.7819 160.233 96.6236C160.68 96.4653 161.038 96.1694 161.32 95.7495C161.595 95.3228 161.733 94.7103 161.733 93.9188H161.74Z" fill="#262626"/>
<path d="M165.326 89.9338H166.551L166.599 91.6063V101.097H165.326V89.9338ZM169.311 98.0689C168.726 98.0689 168.251 97.9313 167.879 97.6629C167.508 97.3945 167.218 97.0434 167.012 96.6098C166.806 96.1831 166.661 95.7289 166.572 95.254C166.489 94.7791 166.441 94.3455 166.441 93.9394C166.441 93.3682 166.482 92.8313 166.558 92.3289C166.64 91.8265 166.778 91.386 166.978 91.0075C167.177 90.6221 167.466 90.3261 167.845 90.1059C168.223 89.8856 168.705 89.7824 169.304 89.7824C169.944 89.7824 170.522 89.9613 171.045 90.3261C171.568 90.6909 171.981 91.1795 172.298 91.8059C172.614 92.4322 172.766 93.1479 172.766 93.9394C172.766 94.7309 172.607 95.4467 172.284 96.0661C171.967 96.6856 171.541 97.1742 171.018 97.5321C170.495 97.89 169.923 98.0689 169.304 98.0689H169.311ZM168.994 96.8576C169.483 96.8576 169.916 96.7337 170.295 96.486C170.673 96.2382 170.969 95.8872 171.183 95.4467C171.396 95.0062 171.499 94.5038 171.499 93.9394C171.499 93.086 171.279 92.384 170.846 91.8265C170.412 91.269 169.793 90.9868 168.994 90.9868C168.526 90.9868 168.113 91.1107 167.748 91.3585C167.384 91.6063 167.108 91.9573 166.902 92.3978C166.702 92.8382 166.599 93.3544 166.599 93.9394C166.599 94.4694 166.689 94.958 166.861 95.3985C167.033 95.839 167.301 96.1969 167.652 96.4584C168.003 96.7268 168.45 96.8576 168.994 96.8576Z" fill="#262626"/>
<path d="M117.947 116.287H65.2678V130.21H117.947V116.287Z" fill="white"/>
<path d="M73.3203 120.478V121.174H69.7827V123.163H72.6734V123.858H69.7827V126.521H69.0394V120.472H73.3203V120.478Z" fill="#262626"/>
<path d="M75.0754 120.01V120.912H74.1049V120.01H75.0754ZM74.2219 121.869H74.9652V126.521H74.2219V121.869Z" fill="#262626"/>
<path d="M76.2385 121.876H76.9818V126.528H76.2385V121.876ZM78.4684 122.571C78.1518 122.571 77.8903 122.653 77.6701 122.805C77.4498 122.956 77.2915 123.156 77.1676 123.383C77.0506 123.61 76.968 123.83 76.9336 124.037V123.5C76.9267 123.445 76.9336 123.348 76.9612 123.218C76.9887 123.087 77.03 122.942 77.0988 122.777C77.1676 122.612 77.2571 122.454 77.3741 122.302C77.4911 122.151 77.6356 122.027 77.8146 121.924C77.9935 121.827 78.2138 121.772 78.4684 121.772V122.564V122.571Z" fill="#262626"/>
<path d="M79.0879 125.028H79.7761C79.7968 125.296 79.8931 125.51 80.0789 125.682C80.2648 125.847 80.5263 125.929 80.8773 125.929C81.0907 125.929 81.2559 125.902 81.3729 125.847C81.4899 125.792 81.5793 125.716 81.6413 125.62C81.6963 125.523 81.7239 125.42 81.7239 125.296C81.7239 125.152 81.6895 125.042 81.6137 124.959C81.538 124.876 81.4486 124.808 81.3247 124.752C81.2008 124.697 81.0631 124.642 80.9117 124.594C80.7328 124.525 80.547 124.457 80.3611 124.374C80.1684 124.298 79.9964 124.202 79.8312 124.092C79.666 123.982 79.5352 123.851 79.432 123.693C79.3356 123.534 79.2806 123.342 79.2806 123.121C79.2806 122.935 79.315 122.757 79.3907 122.598C79.4664 122.433 79.5696 122.289 79.7142 122.172C79.8518 122.048 80.017 121.958 80.2097 121.889C80.3955 121.821 80.6089 121.786 80.836 121.786C81.1457 121.786 81.4073 121.848 81.6206 121.972C81.834 122.096 81.9992 122.268 82.1162 122.495C82.2332 122.722 82.2882 122.984 82.2951 123.28H81.655C81.6137 122.997 81.5243 122.798 81.3935 122.667C81.2627 122.543 81.07 122.474 80.8223 122.474C80.5745 122.474 80.3749 122.529 80.2372 122.64C80.0996 122.75 80.0308 122.901 80.0308 123.087C80.0308 123.225 80.0789 123.335 80.1822 123.424C80.2785 123.514 80.4093 123.596 80.5676 123.665C80.7259 123.734 80.898 123.81 81.0769 123.885C81.2559 123.961 81.4279 124.037 81.6 124.112C81.7652 124.188 81.9166 124.271 82.0473 124.374C82.1781 124.47 82.2813 124.594 82.3571 124.739C82.4328 124.883 82.4741 125.062 82.4741 125.282C82.4741 125.544 82.4121 125.771 82.2951 125.978C82.1712 126.177 81.9992 126.335 81.7652 126.446C81.5312 126.556 81.249 126.611 80.9117 126.611C80.6089 126.611 80.3474 126.569 80.134 126.494C79.9206 126.418 79.7417 126.315 79.5972 126.184C79.4526 126.06 79.3425 125.922 79.2668 125.778C79.1911 125.633 79.136 125.496 79.1154 125.358C79.0947 125.22 79.0879 125.103 79.0947 125.014L79.0879 125.028Z" fill="#262626"/>
<path d="M83.0866 121.876H85.819V122.571H83.0866V121.876ZM84.0846 120.664H84.8279V126.521H84.0846V120.664Z" fill="#262626"/>
<path d="M93.4654 125.64L93.259 125.702V120.472H94.0023V126.521H93.259L89.3359 121.366L89.5424 121.304V126.521H88.7991V120.472H89.5424L93.4654 125.633V125.64Z" fill="#262626"/>
<path d="M97.1132 126.618C96.7484 126.618 96.4112 126.514 96.1015 126.308C95.7917 126.101 95.5509 125.812 95.365 125.454C95.1792 125.09 95.0897 124.677 95.0897 124.216C95.0897 123.754 95.1792 123.335 95.3719 122.97C95.5577 122.605 95.8124 122.316 96.129 122.103C96.4456 121.889 96.8035 121.786 97.2027 121.786C97.6363 121.786 97.9666 121.896 98.1937 122.116C98.4209 122.337 98.5723 122.633 98.6617 122.997C98.7443 123.362 98.7856 123.768 98.7856 124.216C98.7856 124.45 98.7581 124.704 98.7099 124.986C98.6618 125.262 98.5723 125.523 98.4553 125.778C98.3383 126.033 98.1662 126.232 97.946 126.39C97.7257 126.549 97.4504 126.624 97.1063 126.624L97.1132 126.618ZM97.299 125.909C97.6156 125.909 97.8771 125.833 98.0836 125.675C98.2901 125.516 98.4415 125.31 98.5447 125.055C98.6411 124.801 98.6962 124.512 98.6962 124.202C98.6962 123.858 98.648 123.562 98.5447 123.307C98.4415 123.052 98.2901 122.846 98.0767 122.701C97.8703 122.557 97.6087 122.481 97.299 122.481C96.831 122.481 96.4731 122.646 96.2185 122.97C95.9638 123.293 95.8399 123.706 95.8399 124.202C95.8399 124.532 95.9019 124.821 96.0326 125.083C96.1634 125.344 96.3355 125.544 96.5557 125.688C96.7759 125.833 97.0237 125.909 97.3059 125.909H97.299ZM98.6962 121.869H99.4395V126.521H98.7581C98.7375 126.301 98.7237 126.115 98.7099 125.964C98.6962 125.812 98.6893 125.688 98.6893 125.592V121.869H98.6962Z" fill="#262626"/>
<path d="M100.651 121.876H101.394V126.528H100.651V121.876ZM102.998 121.786C103.245 121.786 103.466 121.821 103.665 121.896C103.865 121.972 104.03 122.082 104.168 122.22C104.305 122.364 104.409 122.536 104.484 122.736C104.56 122.935 104.594 123.163 104.594 123.417V126.521H103.851V123.603C103.851 123.245 103.769 122.977 103.603 122.791C103.438 122.612 103.184 122.523 102.853 122.523C102.599 122.523 102.365 122.584 102.144 122.715C101.924 122.846 101.752 123.025 101.607 123.252C101.47 123.479 101.38 123.741 101.353 124.037V123.5C101.373 123.238 101.435 123.004 101.532 122.791C101.628 122.578 101.752 122.399 101.897 122.247C102.041 122.096 102.213 121.979 102.399 121.896C102.585 121.814 102.784 121.772 102.998 121.772V121.786ZM106.122 121.786C106.37 121.786 106.59 121.821 106.79 121.896C106.99 121.972 107.155 122.082 107.292 122.22C107.43 122.364 107.533 122.536 107.609 122.736C107.685 122.935 107.719 123.163 107.719 123.417V126.521H106.976V123.603C106.976 123.245 106.893 122.977 106.721 122.791C106.556 122.612 106.301 122.523 105.971 122.523C105.716 122.523 105.482 122.584 105.262 122.715C105.042 122.846 104.87 123.025 104.725 123.252C104.588 123.479 104.498 123.741 104.471 124.037V123.5C104.491 123.238 104.553 123.004 104.65 122.791C104.746 122.578 104.863 122.399 105.014 122.247C105.166 122.096 105.331 121.979 105.517 121.896C105.703 121.814 105.909 121.772 106.116 121.772L106.122 121.786Z" fill="#262626"/>
<path d="M112.22 125.028H112.915C112.867 125.331 112.757 125.606 112.585 125.84C112.413 126.081 112.193 126.267 111.917 126.404C111.642 126.542 111.326 126.611 110.961 126.611C110.527 126.611 110.135 126.507 109.791 126.301C109.447 126.095 109.171 125.805 108.965 125.448C108.765 125.083 108.662 124.67 108.662 124.209C108.662 123.748 108.758 123.328 108.958 122.963C109.151 122.598 109.419 122.309 109.763 122.096C110.107 121.882 110.486 121.779 110.92 121.779C111.374 121.779 111.752 121.882 112.069 122.082C112.385 122.282 112.613 122.578 112.764 122.963C112.915 123.348 112.977 123.823 112.943 124.395H109.405C109.433 124.697 109.522 124.966 109.66 125.193C109.798 125.42 109.977 125.599 110.197 125.73C110.417 125.854 110.672 125.922 110.961 125.922C111.277 125.922 111.546 125.84 111.766 125.675C111.986 125.51 112.138 125.296 112.22 125.028ZM110.947 122.481C110.562 122.481 110.238 122.591 109.977 122.818C109.715 123.039 109.543 123.348 109.454 123.727H112.179C112.151 123.321 112.021 123.011 111.787 122.798C111.546 122.584 111.271 122.481 110.947 122.481Z" fill="#262626"/>
<path d="M117.947 156.584H65.2678V170.507H117.947V156.584Z" fill="white"/>
<path d="M69.7827 160.769V166.116H73.1345V166.811H69.0394V160.762H69.7827V160.769Z" fill="#262626"/>
<path d="M75.7774 166.908C75.4126 166.908 75.0753 166.805 74.7656 166.598C74.4559 166.392 74.215 166.103 74.0292 165.745C73.8434 165.38 73.7539 164.967 73.7539 164.506C73.7539 164.045 73.8434 163.625 74.0361 163.26C74.2219 162.895 74.4766 162.606 74.7932 162.393C75.1098 162.18 75.4677 162.076 75.8668 162.076C76.3004 162.076 76.6308 162.186 76.8579 162.407C77.085 162.627 77.2365 162.923 77.3259 163.288C77.4085 163.652 77.4498 164.058 77.4498 164.506C77.4498 164.74 77.4223 164.995 77.3741 165.277C77.3259 165.552 77.2365 165.814 77.1195 166.068C77.0025 166.323 76.8304 166.522 76.6102 166.681C76.3899 166.839 76.1146 166.915 75.7705 166.915L75.7774 166.908ZM75.9632 166.199C76.2798 166.199 76.5413 166.123 76.7478 165.965C76.9543 165.807 77.1057 165.6 77.2089 165.346C77.3053 165.091 77.3603 164.802 77.3603 164.492C77.3603 164.148 77.3122 163.852 77.2089 163.597C77.1057 163.343 76.9543 163.136 76.7409 162.992C76.5344 162.847 76.2729 162.771 75.9632 162.771C75.4952 162.771 75.1373 162.937 74.8826 163.26C74.628 163.584 74.5041 163.997 74.5041 164.492C74.5041 164.822 74.566 165.112 74.6968 165.373C74.8276 165.635 74.9996 165.834 75.2199 165.979C75.4401 166.123 75.6879 166.199 75.9701 166.199H75.9632ZM77.3603 162.159H78.1037V166.811H77.4223C77.4016 166.591 77.3879 166.405 77.3741 166.254C77.3603 166.103 77.3535 165.979 77.3535 165.882V162.159H77.3603Z" fill="#262626"/>
<path d="M79.0879 165.318H79.7761C79.7968 165.586 79.8931 165.8 80.0789 165.972C80.2648 166.137 80.5263 166.22 80.8773 166.22C81.0907 166.22 81.2559 166.192 81.3729 166.137C81.4899 166.082 81.5793 166.006 81.6413 165.91C81.6963 165.814 81.7239 165.71 81.7239 165.586C81.7239 165.442 81.6895 165.332 81.6137 165.249C81.538 165.167 81.4486 165.098 81.3247 165.043C81.2008 164.988 81.0631 164.933 80.9117 164.884C80.7328 164.816 80.547 164.747 80.3611 164.664C80.1684 164.588 79.9964 164.492 79.8312 164.382C79.666 164.272 79.5352 164.141 79.432 163.983C79.3356 163.824 79.2806 163.632 79.2806 163.412C79.2806 163.226 79.315 163.047 79.3907 162.888C79.4664 162.723 79.5696 162.579 79.7142 162.462C79.8518 162.338 80.017 162.248 80.2097 162.18C80.3955 162.111 80.6089 162.076 80.836 162.076C81.1457 162.076 81.4073 162.138 81.6206 162.262C81.834 162.386 81.9992 162.558 82.1162 162.785C82.2332 163.012 82.2882 163.274 82.2951 163.57H81.655C81.6137 163.288 81.5243 163.088 81.3935 162.957C81.2627 162.833 81.07 162.765 80.8223 162.765C80.5745 162.765 80.3749 162.82 80.2372 162.93C80.0996 163.04 80.0308 163.191 80.0308 163.377C80.0308 163.515 80.0789 163.625 80.1822 163.714C80.2785 163.804 80.4093 163.886 80.5676 163.955C80.7259 164.024 80.898 164.1 81.0769 164.175C81.2559 164.251 81.4279 164.327 81.6 164.403C81.7652 164.478 81.9166 164.561 82.0473 164.664C82.1781 164.761 82.2813 164.884 82.3571 165.029C82.4328 165.173 82.4741 165.352 82.4741 165.573C82.4741 165.834 82.4121 166.061 82.2951 166.268C82.1712 166.467 81.9992 166.626 81.7652 166.736C81.5312 166.846 81.249 166.901 80.9117 166.901C80.6089 166.901 80.3474 166.86 80.134 166.784C79.9206 166.708 79.7417 166.605 79.5972 166.474C79.4526 166.35 79.3425 166.213 79.2668 166.068C79.1911 165.924 79.136 165.786 79.1154 165.648C79.0947 165.511 79.0879 165.394 79.0947 165.304L79.0879 165.318Z" fill="#262626"/>
<path d="M83.0866 162.166H85.819V162.861H83.0866V162.166ZM84.0846 160.954H84.8279V166.811H84.0846V160.954Z" fill="#262626"/>
<path d="M93.4654 165.931L93.259 165.992V160.762H94.0023V166.811H93.259L89.3359 161.656L89.5424 161.595V166.811H88.7991V160.762H89.5424L93.4654 165.924V165.931Z" fill="#262626"/>
<path d="M97.1132 166.908C96.7484 166.908 96.4112 166.805 96.1015 166.598C95.7917 166.392 95.5509 166.103 95.365 165.745C95.1792 165.38 95.0897 164.967 95.0897 164.506C95.0897 164.045 95.1792 163.625 95.3719 163.26C95.5577 162.895 95.8124 162.606 96.129 162.393C96.4456 162.18 96.8035 162.076 97.2027 162.076C97.6363 162.076 97.9666 162.186 98.1937 162.407C98.4209 162.627 98.5723 162.923 98.6617 163.288C98.7443 163.652 98.7856 164.058 98.7856 164.506C98.7856 164.74 98.7581 164.995 98.7099 165.277C98.6618 165.552 98.5723 165.814 98.4553 166.068C98.3383 166.323 98.1662 166.522 97.946 166.681C97.7257 166.839 97.4504 166.915 97.1063 166.915L97.1132 166.908ZM97.299 166.199C97.6156 166.199 97.8771 166.123 98.0836 165.965C98.2901 165.807 98.4415 165.6 98.5447 165.346C98.6411 165.091 98.6962 164.802 98.6962 164.492C98.6962 164.148 98.648 163.852 98.5447 163.597C98.4415 163.343 98.2901 163.136 98.0767 162.992C97.8703 162.847 97.6087 162.771 97.299 162.771C96.831 162.771 96.4731 162.937 96.2185 163.26C95.9638 163.584 95.8399 163.997 95.8399 164.492C95.8399 164.822 95.9019 165.112 96.0326 165.373C96.1634 165.635 96.3355 165.834 96.5557 165.979C96.7759 166.123 97.0237 166.199 97.3059 166.199H97.299ZM98.6962 162.159H99.4395V166.811H98.7581C98.7375 166.591 98.7237 166.405 98.7099 166.254C98.6962 166.103 98.6893 165.979 98.6893 165.882V162.159H98.6962Z" fill="#262626"/>
<path d="M100.651 162.166H101.394V166.818H100.651V162.166ZM102.998 162.076C103.245 162.076 103.466 162.111 103.665 162.186C103.865 162.262 104.03 162.372 104.168 162.51C104.305 162.654 104.409 162.827 104.484 163.026C104.56 163.226 104.594 163.453 104.594 163.707V166.811H103.851V163.893C103.851 163.535 103.769 163.267 103.603 163.081C103.438 162.902 103.184 162.813 102.853 162.813C102.599 162.813 102.365 162.875 102.144 163.005C101.924 163.136 101.752 163.315 101.607 163.542C101.47 163.769 101.38 164.031 101.353 164.327V163.79C101.373 163.529 101.435 163.295 101.532 163.081C101.628 162.868 101.752 162.689 101.897 162.537C102.041 162.386 102.213 162.269 102.399 162.186C102.585 162.104 102.784 162.063 102.998 162.063V162.076ZM106.122 162.076C106.37 162.076 106.59 162.111 106.79 162.186C106.99 162.262 107.155 162.372 107.292 162.51C107.43 162.654 107.533 162.827 107.609 163.026C107.685 163.226 107.719 163.453 107.719 163.707V166.811H106.976V163.893C106.976 163.535 106.893 163.267 106.721 163.081C106.556 162.902 106.301 162.813 105.971 162.813C105.716 162.813 105.482 162.875 105.262 163.005C105.042 163.136 104.87 163.315 104.725 163.542C104.588 163.769 104.498 164.031 104.471 164.327V163.79C104.491 163.529 104.553 163.295 104.65 163.081C104.746 162.868 104.863 162.689 105.014 162.537C105.166 162.386 105.331 162.269 105.517 162.186C105.703 162.104 105.909 162.063 106.116 162.063L106.122 162.076Z" fill="#262626"/>
<path d="M112.22 165.318H112.915C112.867 165.621 112.757 165.896 112.585 166.13C112.413 166.371 112.193 166.557 111.917 166.694C111.642 166.832 111.326 166.901 110.961 166.901C110.527 166.901 110.135 166.798 109.791 166.591C109.447 166.385 109.171 166.096 108.965 165.738C108.765 165.373 108.662 164.96 108.662 164.499C108.662 164.038 108.758 163.618 108.958 163.253C109.151 162.888 109.419 162.599 109.763 162.386C110.107 162.173 110.486 162.069 110.92 162.069C111.374 162.069 111.752 162.173 112.069 162.372C112.385 162.572 112.613 162.868 112.764 163.253C112.915 163.639 112.977 164.114 112.943 164.685H109.405C109.433 164.988 109.522 165.256 109.66 165.483C109.798 165.71 109.977 165.889 110.197 166.02C110.417 166.144 110.672 166.213 110.961 166.213C111.277 166.213 111.546 166.13 111.766 165.965C111.986 165.8 112.138 165.586 112.22 165.318ZM110.947 162.771C110.562 162.771 110.238 162.882 109.977 163.109C109.715 163.329 109.543 163.639 109.454 164.017H112.179C112.151 163.611 112.021 163.301 111.787 163.088C111.546 162.875 111.271 162.771 110.947 162.771Z" fill="#262626"/>
<path d="M99.4188 198.781H65.2678V212.704H99.4188V198.781Z" fill="white"/>
<path d="M69.7827 206.358V208.32H73.3272V209.015H69.0394V202.965H73.3203V203.66H69.7827V205.65H72.6734V206.345H69.7827V206.358Z" fill="#262626"/>
<path d="M74.4491 206.159H77.147V206.847H74.4491V206.159Z" fill="#262626"/>
<path d="M78.496 204.362H79.2393V209.015H78.496V204.362ZM80.8429 204.273C81.0907 204.273 81.3109 204.307 81.5105 204.383C81.7101 204.459 81.8753 204.569 82.0129 204.707C82.1506 204.851 82.2538 205.023 82.3295 205.223C82.4052 205.422 82.4397 205.65 82.4397 205.904V209.008H81.6963V206.09C81.6963 205.732 81.6138 205.464 81.4486 205.278C81.2834 205.099 81.0287 205.009 80.6984 205.009C80.4437 205.009 80.2097 205.071 79.9895 205.202C79.7692 205.333 79.5972 205.512 79.4526 205.739C79.315 205.966 79.2255 206.228 79.198 206.524V205.987C79.2186 205.725 79.2806 205.491 79.3769 205.278C79.4733 205.065 79.5972 204.886 79.7417 204.734C79.8862 204.583 80.0583 204.466 80.2441 204.383C80.43 204.301 80.6296 204.259 80.8429 204.259V204.273ZM83.9676 204.273C84.2153 204.273 84.4356 204.307 84.6352 204.383C84.8348 204.459 84.9999 204.569 85.1376 204.707C85.2752 204.851 85.3785 205.023 85.4542 205.223C85.5299 205.422 85.5643 205.65 85.5643 205.904V209.008H84.821V206.09C84.821 205.732 84.7384 205.464 84.5663 205.278C84.4012 205.099 84.1465 205.009 83.8162 205.009C83.5615 205.009 83.3275 205.071 83.1073 205.202C82.887 205.333 82.715 205.512 82.5704 205.739C82.4328 205.966 82.3433 206.228 82.3158 206.524V205.987C82.3364 205.725 82.3984 205.491 82.4947 205.278C82.5911 205.065 82.7081 204.886 82.8595 204.734C83.0109 204.583 83.1761 204.466 83.3619 204.383C83.5477 204.301 83.7542 204.259 83.9607 204.259L83.9676 204.273Z" fill="#262626"/>
<path d="M88.5307 209.111C88.1659 209.111 87.8287 209.008 87.519 208.802C87.2092 208.595 86.9684 208.306 86.7825 207.948C86.5967 207.584 86.5072 207.171 86.5072 206.709C86.5072 206.248 86.5967 205.828 86.7894 205.464C86.9752 205.099 87.2299 204.81 87.5465 204.596C87.8631 204.383 88.221 204.28 88.6202 204.28C89.0538 204.28 89.3841 204.39 89.6113 204.61C89.8384 204.831 89.9898 205.126 90.0793 205.491C90.1618 205.856 90.2031 206.262 90.2031 206.709C90.2031 206.943 90.1756 207.198 90.1274 207.48C90.0793 207.756 89.9898 208.017 89.8728 208.272C89.7558 208.526 89.5837 208.726 89.3635 208.884C89.1432 209.043 88.8679 209.118 88.5238 209.118L88.5307 209.111ZM88.7165 208.403C89.0331 208.403 89.2947 208.327 89.5011 208.169C89.7076 208.01 89.859 207.804 89.9623 207.549C90.0586 207.294 90.1137 207.005 90.1137 206.696C90.1137 206.352 90.0655 206.056 89.9623 205.801C89.859 205.546 89.7076 205.34 89.4942 205.195C89.2878 205.051 89.0262 204.975 88.7165 204.975C88.2485 204.975 87.8906 205.14 87.636 205.464C87.3813 205.787 87.2574 206.2 87.2574 206.696C87.2574 207.026 87.3194 207.315 87.4501 207.577C87.5809 207.838 87.753 208.038 87.9732 208.182C88.1935 208.327 88.4412 208.403 88.7234 208.403H88.7165ZM90.1137 204.362H90.857V209.015H90.1756C90.155 208.795 90.1412 208.609 90.1274 208.458C90.1137 208.306 90.1068 208.182 90.1068 208.086V204.362H90.1137Z" fill="#262626"/>
<path d="M92.9837 202.504V203.406H92.0132V202.504H92.9837ZM92.1302 204.362H92.8736V209.015H92.1302V204.362Z" fill="#262626"/>
<path d="M94.2432 202.504H94.9865V209.015H94.2432V202.504Z" fill="#262626"/>
<path d="M111.092 241.686H65.2678V255.61H111.092V241.686Z" fill="white"/>
<path d="M69.6175 249.78V249.085H71.5171C71.8888 249.085 72.1916 248.968 72.4256 248.734C72.6596 248.5 72.7766 248.197 72.7766 247.826C72.7766 247.454 72.6596 247.137 72.4256 246.91C72.1916 246.683 71.8888 246.573 71.5171 246.573H69.7689V251.921H69.0256V245.871H71.5171C71.7993 245.871 72.0539 245.912 72.2948 246.002C72.5357 246.091 72.7491 246.215 72.9349 246.38C73.1207 246.545 73.2584 246.752 73.3616 246.993C73.4649 247.234 73.513 247.509 73.513 247.819C73.513 248.128 73.4649 248.404 73.3616 248.645C73.2584 248.885 73.1138 249.092 72.9349 249.257C72.756 249.422 72.5426 249.553 72.2948 249.636C72.0471 249.718 71.7924 249.766 71.5171 249.766H69.6175V249.78Z" fill="#262626"/>
<path d="M76.1078 252.01C75.743 252.01 75.4057 251.907 75.096 251.7C74.7863 251.494 74.5454 251.205 74.3596 250.847C74.1738 250.482 74.0843 250.069 74.0843 249.608C74.0843 249.147 74.1738 248.727 74.3665 248.362C74.5523 247.998 74.807 247.709 75.1236 247.495C75.4401 247.282 75.798 247.179 76.1972 247.179C76.6308 247.179 76.9612 247.289 77.1883 247.509C77.4154 247.729 77.5668 248.025 77.6563 248.39C77.7389 248.755 77.7802 249.161 77.7802 249.608C77.7802 249.842 77.7527 250.097 77.7045 250.379C77.6563 250.654 77.5668 250.916 77.4498 251.17C77.3328 251.425 77.1608 251.625 76.9405 251.783C76.7203 251.941 76.445 252.017 76.1009 252.017L76.1078 252.01ZM76.2936 251.301C76.6102 251.301 76.8717 251.226 77.0782 251.067C77.2847 250.909 77.4361 250.702 77.5393 250.448C77.6357 250.193 77.6907 249.904 77.6907 249.594C77.6907 249.25 77.6425 248.954 77.5393 248.7C77.4361 248.445 77.2847 248.239 77.0713 248.094C76.8648 247.949 76.6033 247.874 76.2936 247.874C75.8256 247.874 75.4677 248.039 75.213 248.362C74.9584 248.686 74.8345 249.099 74.8345 249.594C74.8345 249.925 74.8964 250.214 75.0272 250.475C75.158 250.737 75.33 250.936 75.5503 251.081C75.7705 251.226 76.0183 251.301 76.3005 251.301H76.2936ZM77.6907 247.261H78.434V251.914H77.7527C77.732 251.694 77.7183 251.508 77.7045 251.356C77.6907 251.205 77.6838 251.081 77.6838 250.985V247.261H77.6907Z" fill="#262626"/>
<path d="M79.4251 250.42H80.1134C80.134 250.689 80.2304 250.902 80.4162 251.074C80.602 251.239 80.8636 251.322 81.2146 251.322C81.4279 251.322 81.5931 251.294 81.7101 251.239C81.8271 251.184 81.9166 251.109 81.9785 251.012C82.0336 250.916 82.0611 250.813 82.0611 250.689C82.0611 250.544 82.0267 250.434 81.951 250.351C81.8753 250.269 81.7858 250.2 81.6619 250.145C81.538 250.09 81.4004 250.035 81.249 249.987C81.07 249.918 80.8842 249.849 80.6984 249.766C80.5057 249.691 80.3336 249.594 80.1684 249.484C80.0032 249.374 79.8725 249.243 79.7692 249.085C79.6729 248.927 79.6178 248.734 79.6178 248.514C79.6178 248.328 79.6522 248.149 79.7279 247.991C79.8036 247.826 79.9069 247.681 80.0514 247.564C80.1891 247.44 80.3542 247.351 80.547 247.282C80.7328 247.213 80.9461 247.179 81.1733 247.179C81.483 247.179 81.7445 247.241 81.9579 247.364C82.1712 247.488 82.3364 247.66 82.4534 247.888C82.5704 248.115 82.6255 248.376 82.6324 248.672H81.9923C81.951 248.39 81.8615 248.19 81.7308 248.06C81.6 247.936 81.4073 247.867 81.1595 247.867C80.9117 247.867 80.7121 247.922 80.5745 248.032C80.4368 248.142 80.368 248.294 80.368 248.479C80.368 248.617 80.4162 248.727 80.5194 248.817C80.6158 248.906 80.7465 248.989 80.9048 249.058C81.0631 249.126 81.2352 249.202 81.4142 249.278C81.5931 249.353 81.7652 249.429 81.9372 249.505C82.1024 249.581 82.2538 249.663 82.3846 249.766C82.5154 249.863 82.6186 249.987 82.6943 250.131C82.77 250.276 82.8113 250.455 82.8113 250.675C82.8113 250.936 82.7494 251.164 82.6324 251.37C82.5085 251.57 82.3364 251.728 82.1024 251.838C81.8684 251.948 81.5862 252.003 81.249 252.003C80.9461 252.003 80.6846 251.962 80.4712 251.886C80.2579 251.811 80.0789 251.707 79.9344 251.577C79.7899 251.453 79.6798 251.315 79.6041 251.17C79.5283 251.026 79.4733 250.888 79.4526 250.751C79.432 250.613 79.4251 250.496 79.432 250.407L79.4251 250.42Z" fill="#262626"/>
<path d="M83.5271 250.42H84.2154C84.236 250.689 84.3324 250.902 84.5182 251.074C84.704 251.239 84.9655 251.322 85.3166 251.322C85.5299 251.322 85.6951 251.294 85.8121 251.239C85.9291 251.184 86.0186 251.109 86.0805 251.012C86.1356 250.916 86.1631 250.813 86.1631 250.689C86.1631 250.544 86.1287 250.434 86.053 250.351C85.9773 250.269 85.8878 250.2 85.7639 250.145C85.64 250.09 85.5024 250.035 85.351 249.987C85.172 249.918 84.9862 249.849 84.8004 249.766C84.6077 249.691 84.4356 249.594 84.2704 249.484C84.1052 249.374 83.9745 249.243 83.8712 249.085C83.7749 248.927 83.7198 248.734 83.7198 248.514C83.7198 248.328 83.7542 248.149 83.8299 247.991C83.9056 247.826 84.0089 247.681 84.1534 247.564C84.2911 247.44 84.4562 247.351 84.6489 247.282C84.8348 247.213 85.0481 247.179 85.2753 247.179C85.585 247.179 85.8465 247.241 86.0599 247.364C86.2732 247.488 86.4384 247.66 86.5554 247.888C86.6724 248.115 86.7275 248.376 86.7343 248.672H86.0943C86.053 248.39 85.9635 248.19 85.8327 248.06C85.702 247.936 85.5093 247.867 85.2615 247.867C85.0137 247.867 84.8141 247.922 84.6765 248.032C84.5388 248.142 84.47 248.294 84.47 248.479C84.47 248.617 84.5182 248.727 84.6214 248.817C84.7178 248.906 84.8485 248.989 85.0068 249.058C85.1651 249.126 85.3372 249.202 85.5161 249.278C85.6951 249.353 85.8672 249.429 86.0392 249.505C86.2044 249.581 86.3558 249.663 86.4866 249.766C86.6173 249.863 86.7206 249.987 86.7963 250.131C86.872 250.276 86.9133 250.455 86.9133 250.675C86.9133 250.936 86.8514 251.164 86.7343 251.37C86.6105 251.57 86.4384 251.728 86.2044 251.838C85.9704 251.948 85.6882 252.003 85.351 252.003C85.0481 252.003 84.7866 251.962 84.5732 251.886C84.3599 251.811 84.1809 251.707 84.0364 251.577C83.8919 251.453 83.7817 251.315 83.706 251.17C83.6303 251.026 83.5753 250.888 83.5546 250.751C83.534 250.613 83.5271 250.496 83.534 250.407L83.5271 250.42Z" fill="#262626"/>
<path d="M92.4262 251.239H92.2404L93.3278 247.268H94.1399L92.7153 251.921H92.0201L90.6436 247.846H90.8294L89.4529 251.921H88.7578L87.3469 247.268H88.159L89.2258 251.232H89.04L90.2926 247.268H91.1942L92.4331 251.239H92.4262Z" fill="#262626"/>
<path d="M96.8103 252.01C96.4112 252.01 96.0395 251.914 95.6954 251.721C95.3512 251.528 95.0691 251.253 94.8557 250.888C94.6423 250.524 94.5322 250.097 94.5322 249.601C94.5322 249.106 94.6423 248.679 94.8557 248.314C95.0691 247.949 95.3512 247.674 95.6954 247.475C96.0395 247.275 96.4112 247.179 96.8103 247.179C97.2095 247.179 97.5812 247.275 97.9253 247.475C98.2694 247.674 98.5447 247.956 98.7581 248.314C98.9714 248.679 99.0747 249.106 99.0747 249.601C99.0747 250.097 98.9714 250.524 98.7581 250.888C98.5447 251.253 98.2694 251.528 97.9253 251.721C97.5812 251.914 97.2095 252.01 96.8103 252.01ZM96.8103 251.315C97.0719 251.315 97.3128 251.253 97.5468 251.122C97.7808 250.992 97.9666 250.799 98.1111 250.544C98.2557 250.29 98.3314 249.973 98.3314 249.608C98.3314 249.243 98.2557 248.934 98.1111 248.672C97.9666 248.417 97.7808 248.218 97.5468 248.08C97.3128 247.943 97.0719 247.874 96.8103 247.874C96.5488 247.874 96.301 247.943 96.0739 248.073C95.8399 248.204 95.6472 248.404 95.5027 248.658C95.3512 248.913 95.2824 249.23 95.2824 249.601C95.2824 249.973 95.3581 250.276 95.5027 250.537C95.6472 250.792 95.8399 250.992 96.0739 251.115C96.3079 251.246 96.5557 251.308 96.8172 251.308L96.8103 251.315Z" fill="#262626"/>
<path d="M100.018 247.268H100.761V251.921H100.018V247.268ZM102.248 247.963C101.931 247.963 101.669 248.046 101.449 248.197C101.229 248.349 101.071 248.548 100.947 248.775C100.83 249.002 100.747 249.223 100.713 249.429V248.892C100.706 248.837 100.713 248.741 100.74 248.61C100.768 248.479 100.809 248.335 100.878 248.17C100.947 248.005 101.036 247.846 101.153 247.695C101.27 247.543 101.415 247.419 101.594 247.316C101.773 247.22 101.993 247.165 102.248 247.165V247.956V247.963Z" fill="#262626"/>
<path d="M104.842 252.01C104.471 252.01 104.133 251.907 103.824 251.7C103.514 251.494 103.273 251.205 103.094 250.847C102.915 250.482 102.826 250.069 102.826 249.608C102.826 249.147 102.915 248.727 103.087 248.362C103.259 247.998 103.5 247.709 103.803 247.495C104.106 247.282 104.457 247.179 104.842 247.179C105.186 247.179 105.475 247.241 105.696 247.371C105.916 247.502 106.088 247.674 106.205 247.894C106.322 248.122 106.405 248.376 106.453 248.665C106.501 248.954 106.522 249.271 106.522 249.608C106.522 249.842 106.494 250.097 106.446 250.379C106.398 250.654 106.308 250.916 106.191 251.17C106.074 251.425 105.902 251.625 105.682 251.783C105.462 251.941 105.186 252.017 104.842 252.017V252.01ZM105.028 251.301C105.345 251.301 105.606 251.226 105.813 251.067C106.019 250.909 106.171 250.702 106.274 250.448C106.37 250.193 106.425 249.904 106.425 249.594C106.425 249.25 106.377 248.954 106.274 248.7C106.171 248.445 106.019 248.239 105.806 248.094C105.599 247.949 105.338 247.874 105.028 247.874C104.56 247.874 104.202 248.039 103.947 248.362C103.693 248.686 103.569 249.099 103.569 249.594C103.569 249.925 103.631 250.214 103.762 250.475C103.892 250.737 104.065 250.936 104.285 251.081C104.505 251.226 104.753 251.301 105.035 251.301H105.028ZM106.425 245.403H107.169V251.914H106.487C106.473 251.776 106.46 251.618 106.446 251.432C106.432 251.246 106.425 251.095 106.425 250.985V245.403Z" fill="#262626"/>
<path d="M130.583 325.701V319.651H133.253C133.673 319.651 134.038 319.713 134.334 319.844C134.63 319.968 134.857 320.161 135.015 320.415C135.173 320.67 135.249 320.987 135.249 321.372C135.249 321.634 135.208 321.854 135.125 322.04C135.043 322.226 134.926 322.384 134.774 322.508C134.623 322.632 134.451 322.735 134.251 322.804C134.052 322.872 133.831 322.914 133.597 322.934L133.57 322.886C133.9 322.9 134.182 322.941 134.416 323.01C134.65 323.079 134.836 323.203 134.967 323.382C135.098 323.561 135.16 323.829 135.16 324.194V325.701H134.416V324.194C134.416 323.946 134.375 323.753 134.293 323.616C134.21 323.478 134.072 323.375 133.873 323.32C133.68 323.265 133.412 323.23 133.067 323.23H131.326V325.701H130.583ZM131.326 322.528H133.253C133.673 322.528 133.99 322.418 134.196 322.205C134.403 321.992 134.506 321.716 134.506 321.372C134.506 321.028 134.403 320.794 134.196 320.615C133.99 320.436 133.673 320.347 133.253 320.347H131.326V322.521V322.528Z" fill="#262626"/>
<path d="M139.702 324.208H140.397C140.349 324.511 140.239 324.786 140.067 325.02C139.895 325.261 139.675 325.447 139.399 325.584C139.124 325.722 138.807 325.791 138.443 325.791C138.009 325.791 137.617 325.687 137.273 325.481C136.929 325.275 136.653 324.985 136.447 324.628C136.247 324.263 136.144 323.85 136.144 323.389C136.144 322.928 136.24 322.508 136.44 322.143C136.633 321.778 136.901 321.489 137.245 321.276C137.589 321.062 137.968 320.959 138.401 320.959C138.856 320.959 139.234 321.062 139.551 321.262C139.867 321.462 140.094 321.758 140.246 322.143C140.397 322.528 140.459 323.003 140.425 323.575H136.887C136.915 323.877 137.004 324.146 137.142 324.373C137.28 324.6 137.458 324.779 137.679 324.91C137.899 325.034 138.154 325.102 138.443 325.102C138.759 325.102 139.028 325.02 139.248 324.855C139.468 324.689 139.62 324.476 139.702 324.208ZM138.429 321.661C138.043 321.661 137.72 321.771 137.458 321.998C137.197 322.219 137.025 322.528 136.935 322.907H139.661C139.633 322.501 139.503 322.191 139.269 321.978C139.028 321.764 138.752 321.661 138.429 321.661Z" fill="#262626"/>
<path d="M143.054 324.965C142.724 324.965 142.414 324.882 142.118 324.731C141.822 324.572 141.581 324.345 141.402 324.049C141.216 323.753 141.127 323.396 141.127 322.983C141.127 322.57 141.216 322.212 141.395 321.909C141.574 321.606 141.808 321.379 142.104 321.214C142.393 321.049 142.71 320.966 143.054 320.966C143.157 320.966 143.26 320.973 143.357 320.987C143.453 321 143.543 321.028 143.632 321.056H145.518V321.854C145.249 321.854 144.988 321.806 144.72 321.702C144.451 321.599 144.231 321.503 144.045 321.393L144.011 321.358C144.231 321.475 144.41 321.613 144.547 321.778C144.685 321.936 144.795 322.122 144.864 322.322C144.933 322.521 144.974 322.742 144.974 322.976C144.974 323.389 144.885 323.747 144.706 324.043C144.527 324.338 144.293 324.566 144.004 324.724C143.715 324.882 143.398 324.958 143.054 324.958V324.965ZM144.424 327.559V327.353C144.424 327.023 144.341 326.789 144.169 326.637C143.997 326.486 143.742 326.417 143.398 326.417H142.469C142.262 326.417 142.084 326.396 141.932 326.369C141.781 326.334 141.657 326.286 141.554 326.217C141.457 326.149 141.382 326.066 141.333 325.97C141.285 325.873 141.258 325.756 141.258 325.632C141.258 325.398 141.326 325.219 141.471 325.096C141.616 324.979 141.788 324.896 142.001 324.868C142.214 324.841 142.414 324.841 142.607 324.868L143.054 324.972C142.717 324.992 142.462 325.027 142.276 325.075C142.09 325.123 142.001 325.233 142.001 325.392C142.001 325.488 142.035 325.564 142.111 325.619C142.18 325.674 142.29 325.708 142.435 325.708H143.405C143.728 325.708 144.024 325.756 144.286 325.846C144.554 325.935 144.768 326.087 144.926 326.3C145.084 326.513 145.167 326.809 145.167 327.181V327.573H144.424V327.559ZM143.054 324.27C143.26 324.27 143.446 324.221 143.625 324.118C143.804 324.022 143.949 323.87 144.059 323.685C144.169 323.499 144.224 323.258 144.224 322.976C144.224 322.694 144.169 322.46 144.059 322.267C143.949 322.074 143.804 321.923 143.625 321.819C143.446 321.716 143.254 321.668 143.047 321.668C142.841 321.668 142.648 321.716 142.469 321.819C142.29 321.923 142.145 322.067 142.028 322.26C141.911 322.453 141.863 322.694 141.863 322.976C141.863 323.258 141.918 323.492 142.028 323.685C142.139 323.877 142.283 324.022 142.469 324.118C142.648 324.215 142.841 324.27 143.047 324.27H143.054Z" fill="#262626"/>
<path d="M147.314 319.19V320.092H146.344V319.19H147.314ZM146.461 321.049H147.204V325.701H146.461V321.049Z" fill="#262626"/>
<path d="M148.25 324.208H148.939C148.959 324.476 149.056 324.689 149.241 324.862C149.427 325.027 149.689 325.109 150.04 325.109C150.253 325.109 150.418 325.082 150.535 325.027C150.652 324.972 150.742 324.896 150.804 324.8C150.859 324.703 150.886 324.6 150.886 324.476C150.886 324.332 150.852 324.221 150.776 324.139C150.7 324.056 150.611 323.987 150.487 323.932C150.363 323.877 150.226 323.822 150.074 323.774C149.895 323.705 149.709 323.636 149.524 323.554C149.331 323.478 149.159 323.382 148.994 323.272C148.828 323.162 148.698 323.031 148.594 322.872C148.498 322.714 148.443 322.521 148.443 322.301C148.443 322.115 148.477 321.936 148.553 321.778C148.629 321.613 148.732 321.468 148.877 321.351C149.014 321.228 149.179 321.138 149.372 321.069C149.558 321 149.771 320.966 149.998 320.966C150.308 320.966 150.57 321.028 150.783 321.152C150.996 321.276 151.162 321.448 151.279 321.675C151.396 321.902 151.451 322.164 151.458 322.46H150.817C150.776 322.177 150.687 321.978 150.556 321.847C150.425 321.723 150.232 321.654 149.985 321.654C149.737 321.654 149.537 321.709 149.4 321.819C149.262 321.93 149.193 322.081 149.193 322.267C149.193 322.404 149.241 322.515 149.345 322.604C149.441 322.694 149.572 322.776 149.73 322.845C149.888 322.914 150.06 322.989 150.239 323.065C150.418 323.141 150.59 323.217 150.762 323.292C150.928 323.368 151.079 323.451 151.21 323.554C151.341 323.65 151.444 323.774 151.519 323.919C151.595 324.063 151.636 324.242 151.636 324.462C151.636 324.724 151.575 324.951 151.458 325.157C151.334 325.357 151.162 325.515 150.928 325.626C150.694 325.736 150.411 325.791 150.074 325.791C149.771 325.791 149.51 325.749 149.296 325.674C149.083 325.598 148.904 325.495 148.76 325.364C148.615 325.24 148.505 325.102 148.429 324.958C148.354 324.813 148.298 324.676 148.278 324.538C148.257 324.4 148.25 324.283 148.257 324.194L148.25 324.208Z" fill="#262626"/>
<path d="M152.256 321.049H154.988V321.744H152.256V321.049ZM153.254 319.837H153.997V325.694H153.254V319.837Z" fill="#262626"/>
<path d="M159.07 324.208H159.765C159.717 324.511 159.606 324.786 159.434 325.02C159.262 325.261 159.042 325.447 158.767 325.584C158.491 325.722 158.175 325.791 157.81 325.791C157.376 325.791 156.984 325.687 156.64 325.481C156.296 325.275 156.021 324.985 155.814 324.628C155.615 324.263 155.511 323.85 155.511 323.389C155.511 322.928 155.608 322.508 155.807 322.143C156 321.778 156.268 321.489 156.613 321.276C156.957 321.062 157.335 320.959 157.769 320.959C158.223 320.959 158.602 321.062 158.918 321.262C159.235 321.462 159.462 321.758 159.613 322.143C159.765 322.528 159.827 323.003 159.792 323.575H156.255C156.282 323.877 156.372 324.146 156.509 324.373C156.647 324.6 156.826 324.779 157.046 324.91C157.266 325.034 157.521 325.102 157.81 325.102C158.127 325.102 158.395 325.02 158.615 324.855C158.836 324.689 158.987 324.476 159.07 324.208ZM157.796 321.661C157.411 321.661 157.087 321.771 156.826 321.998C156.564 322.219 156.392 322.528 156.303 322.907H159.028C159.001 322.501 158.87 322.191 158.636 321.978C158.395 321.764 158.12 321.661 157.796 321.661Z" fill="#262626"/>
<path d="M160.756 321.049H161.499V325.701H160.756V321.049ZM162.986 321.744C162.669 321.744 162.408 321.826 162.187 321.978C161.967 322.129 161.809 322.329 161.685 322.556C161.568 322.783 161.485 323.003 161.451 323.21V322.673C161.444 322.618 161.451 322.521 161.478 322.391C161.506 322.26 161.547 322.115 161.616 321.95C161.685 321.785 161.774 321.627 161.891 321.475C162.008 321.324 162.153 321.2 162.332 321.097C162.511 321 162.731 320.945 162.986 320.945V321.737V321.744Z" fill="#262626"/>
<path d="M116.295 291.66L117.609 288.205H118.057L119.378 291.66H118.924L117.768 288.536H117.898L116.742 291.66H116.295ZM116.997 290.759V290.36H118.655V290.759H116.997Z" fill="#262626"/>
<path d="M119.881 287.944H120.307V291.667H119.881V287.944Z" fill="#262626"/>
<path d="M121.051 289.004H121.477V291.66H121.051V289.004ZM122.324 289.403C122.145 289.403 121.993 289.451 121.87 289.54C121.746 289.63 121.649 289.74 121.581 289.871C121.512 290.002 121.464 290.125 121.443 290.242V289.933C121.443 289.933 121.443 289.85 121.457 289.774C121.47 289.699 121.498 289.616 121.539 289.52C121.581 289.423 121.629 289.334 121.698 289.251C121.759 289.162 121.849 289.093 121.952 289.038C122.055 288.983 122.179 288.955 122.324 288.955V289.41V289.403Z" fill="#262626"/>
<path d="M124.691 290.807H125.091C125.063 290.979 125.001 291.137 124.905 291.275C124.808 291.413 124.678 291.523 124.519 291.598C124.361 291.681 124.182 291.715 123.976 291.715C123.728 291.715 123.508 291.653 123.308 291.536C123.108 291.419 122.95 291.254 122.84 291.048C122.723 290.841 122.668 290.6 122.668 290.339C122.668 290.077 122.723 289.836 122.833 289.623C122.943 289.41 123.095 289.251 123.294 289.128C123.487 289.004 123.707 288.949 123.955 288.949C124.217 288.949 124.43 289.004 124.609 289.121C124.788 289.238 124.919 289.403 125.008 289.623C125.097 289.843 125.132 290.119 125.111 290.442H123.095C123.115 290.614 123.163 290.766 123.239 290.896C123.315 291.027 123.418 291.13 123.549 291.199C123.68 291.275 123.824 291.309 123.982 291.309C124.161 291.309 124.32 291.261 124.444 291.165C124.568 291.068 124.657 290.945 124.705 290.793L124.691 290.807ZM123.962 289.348C123.742 289.348 123.556 289.41 123.411 289.54C123.26 289.664 123.163 289.843 123.115 290.064H124.671C124.657 289.83 124.581 289.651 124.444 289.534C124.306 289.417 124.148 289.355 123.962 289.355V289.348Z" fill="#262626"/>
<path d="M126.653 291.715C126.446 291.715 126.254 291.653 126.075 291.536C125.903 291.419 125.758 291.254 125.655 291.048C125.552 290.841 125.497 290.6 125.497 290.339C125.497 290.077 125.552 289.836 125.655 289.623C125.758 289.41 125.903 289.251 126.089 289.128C126.274 289.004 126.474 288.949 126.701 288.949C126.949 288.949 127.135 289.011 127.265 289.134C127.396 289.258 127.486 289.43 127.534 289.637C127.582 289.843 127.603 290.077 127.603 290.332C127.603 290.47 127.589 290.614 127.561 290.772C127.534 290.931 127.486 291.082 127.417 291.227C127.348 291.371 127.252 291.488 127.128 291.578C127.004 291.667 126.846 291.715 126.653 291.715ZM126.756 291.309C126.935 291.309 127.087 291.268 127.204 291.179C127.321 291.089 127.41 290.972 127.465 290.828C127.52 290.683 127.548 290.518 127.548 290.339C127.548 290.146 127.52 289.974 127.458 289.823C127.403 289.678 127.314 289.561 127.19 289.479C127.073 289.396 126.921 289.355 126.749 289.355C126.481 289.355 126.281 289.444 126.13 289.637C125.985 289.823 125.91 290.057 125.91 290.339C125.91 290.525 125.944 290.697 126.02 290.841C126.095 290.986 126.192 291.103 126.316 291.185C126.44 291.268 126.584 291.309 126.742 291.309H126.756ZM127.555 289.004H127.981V291.66H127.596C127.582 291.53 127.575 291.426 127.568 291.344C127.561 291.261 127.555 291.185 127.555 291.13V289.004Z" fill="#262626"/>
<path d="M129.681 291.715C129.468 291.715 129.275 291.653 129.096 291.536C128.924 291.419 128.78 291.254 128.676 291.048C128.573 290.841 128.525 290.6 128.525 290.339C128.525 290.077 128.573 289.836 128.676 289.623C128.78 289.41 128.91 289.251 129.082 289.128C129.255 289.004 129.454 288.949 129.681 288.949C129.881 288.949 130.039 288.983 130.17 289.059C130.301 289.134 130.39 289.231 130.459 289.362C130.528 289.485 130.576 289.637 130.603 289.802C130.631 289.967 130.645 290.146 130.645 290.339C130.645 290.477 130.631 290.621 130.603 290.779C130.576 290.938 130.528 291.089 130.459 291.234C130.39 291.378 130.294 291.495 130.17 291.585C130.046 291.674 129.888 291.722 129.695 291.722L129.681 291.715ZM129.784 291.309C129.963 291.309 130.115 291.268 130.232 291.179C130.349 291.089 130.438 290.972 130.493 290.828C130.548 290.683 130.576 290.518 130.576 290.339C130.576 290.146 130.548 289.974 130.486 289.823C130.431 289.678 130.342 289.561 130.218 289.479C130.101 289.396 129.95 289.355 129.778 289.355C129.509 289.355 129.31 289.444 129.158 289.637C129.014 289.823 128.938 290.057 128.938 290.339C128.938 290.525 128.972 290.697 129.048 290.841C129.124 290.986 129.22 291.103 129.344 291.185C129.468 291.268 129.612 291.309 129.771 291.309H129.784ZM130.583 287.937H131.01V291.66H130.624C130.617 291.585 130.61 291.488 130.597 291.385C130.583 291.282 130.583 291.192 130.583 291.13V287.944V287.937Z" fill="#262626"/>
<path d="M131.54 289.004H131.994L132.944 291.557L132.572 291.66L131.533 289.004H131.54ZM134.01 289.004L132.524 292.727H132.063L132.703 291.289L133.556 289.004H134.01Z" fill="#262626"/>
<path d="M136.584 291.715C136.378 291.715 136.185 291.653 136.006 291.536C135.834 291.419 135.69 291.254 135.586 291.048C135.483 290.841 135.428 290.6 135.428 290.339C135.428 290.077 135.483 289.836 135.586 289.623C135.69 289.41 135.834 289.251 136.02 289.128C136.206 289.004 136.405 288.949 136.633 288.949C136.88 288.949 137.066 289.011 137.197 289.134C137.328 289.258 137.417 289.43 137.465 289.637C137.514 289.843 137.534 290.077 137.534 290.332C137.534 290.47 137.52 290.614 137.493 290.772C137.465 290.931 137.417 291.082 137.348 291.227C137.28 291.371 137.183 291.488 137.059 291.578C136.935 291.667 136.777 291.715 136.584 291.715ZM136.688 291.309C136.867 291.309 137.018 291.268 137.135 291.179C137.252 291.089 137.341 290.972 137.397 290.828C137.452 290.683 137.479 290.518 137.479 290.339C137.479 290.146 137.452 289.974 137.39 289.823C137.335 289.678 137.245 289.561 137.121 289.479C137.004 289.396 136.853 289.355 136.681 289.355C136.412 289.355 136.213 289.444 136.061 289.637C135.917 289.823 135.841 290.057 135.841 290.339C135.841 290.525 135.875 290.697 135.951 290.841C136.027 290.986 136.123 291.103 136.247 291.185C136.371 291.268 136.516 291.309 136.674 291.309H136.688ZM137.486 289.004H137.913V291.66H137.527C137.514 291.53 137.507 291.426 137.5 291.344C137.493 291.261 137.486 291.185 137.486 291.13V289.004Z" fill="#262626"/>
<path d="M139.723 289.004H140.15V291.66H139.723V289.004ZM141.065 288.949C141.209 288.949 141.333 288.969 141.45 289.011C141.567 289.052 141.657 289.114 141.739 289.196C141.815 289.279 141.877 289.375 141.918 289.492C141.96 289.609 141.98 289.74 141.98 289.885V291.66H141.554V289.995C141.554 289.788 141.505 289.637 141.409 289.534C141.313 289.43 141.168 289.382 140.975 289.382C140.831 289.382 140.693 289.417 140.569 289.492C140.445 289.568 140.342 289.671 140.267 289.795C140.184 289.926 140.136 290.077 140.122 290.242V289.933C140.136 289.781 140.17 289.651 140.225 289.527C140.28 289.41 140.349 289.3 140.432 289.217C140.514 289.134 140.611 289.066 140.721 289.017C140.831 288.969 140.941 288.949 141.065 288.949ZM142.847 288.949C142.992 288.949 143.116 288.969 143.233 289.011C143.343 289.052 143.439 289.114 143.522 289.196C143.598 289.279 143.66 289.375 143.701 289.492C143.742 289.609 143.763 289.74 143.763 289.885V291.66H143.336V289.995C143.336 289.788 143.288 289.637 143.192 289.534C143.095 289.43 142.951 289.382 142.765 289.382C142.62 289.382 142.483 289.417 142.359 289.492C142.235 289.568 142.132 289.671 142.056 289.795C141.973 289.926 141.925 290.077 141.911 290.242V289.933C141.925 289.781 141.96 289.651 142.015 289.527C142.07 289.41 142.139 289.3 142.221 289.217C142.304 289.134 142.4 289.066 142.51 289.017C142.62 288.969 142.73 288.949 142.854 288.949H142.847Z" fill="#262626"/>
<path d="M146.33 290.807H146.729C146.702 290.979 146.64 291.137 146.543 291.275C146.447 291.413 146.316 291.523 146.158 291.598C146 291.681 145.821 291.715 145.614 291.715C145.366 291.715 145.146 291.653 144.947 291.536C144.747 291.419 144.589 291.254 144.479 291.048C144.362 290.841 144.307 290.6 144.307 290.339C144.307 290.077 144.362 289.836 144.472 289.623C144.582 289.41 144.733 289.251 144.933 289.128C145.126 289.004 145.346 288.949 145.594 288.949C145.855 288.949 146.068 289.004 146.247 289.121C146.426 289.238 146.557 289.403 146.647 289.623C146.736 289.843 146.771 290.119 146.75 290.442H144.733C144.754 290.614 144.802 290.766 144.878 290.896C144.954 291.027 145.057 291.13 145.188 291.199C145.318 291.275 145.463 291.309 145.621 291.309C145.8 291.309 145.958 291.261 146.082 291.165C146.206 291.068 146.296 290.945 146.344 290.793L146.33 290.807ZM145.6 289.348C145.38 289.348 145.194 289.41 145.05 289.54C144.898 289.664 144.802 289.843 144.754 290.064H146.309C146.296 289.83 146.22 289.651 146.082 289.534C145.945 289.417 145.786 289.355 145.6 289.355V289.348Z" fill="#262626"/>
<path d="M147.294 289.004H147.72V291.66H147.294V289.004ZM148.636 288.949C148.78 288.949 148.904 288.969 149.021 289.011C149.138 289.052 149.228 289.114 149.31 289.196C149.386 289.279 149.448 289.375 149.489 289.492C149.53 289.609 149.551 289.74 149.551 289.885V291.66H149.124V289.995C149.124 289.788 149.076 289.637 148.98 289.534C148.883 289.43 148.739 289.382 148.546 289.382C148.402 289.382 148.264 289.417 148.14 289.492C148.016 289.568 147.913 289.671 147.837 289.795C147.755 289.926 147.707 290.077 147.693 290.242V289.933C147.707 289.781 147.741 289.651 147.796 289.527C147.851 289.41 147.92 289.3 148.002 289.217C148.085 289.134 148.181 289.066 148.292 289.017C148.402 288.969 148.512 288.949 148.636 288.949ZM150.418 288.949C150.563 288.949 150.687 288.969 150.804 289.011C150.914 289.052 151.01 289.114 151.093 289.196C151.168 289.279 151.23 289.375 151.272 289.492C151.313 289.609 151.334 289.74 151.334 289.885V291.66H150.907V289.995C150.907 289.788 150.859 289.637 150.762 289.534C150.666 289.43 150.521 289.382 150.336 289.382C150.191 289.382 150.053 289.417 149.93 289.492C149.806 289.568 149.702 289.671 149.627 289.795C149.544 289.926 149.496 290.077 149.482 290.242V289.933C149.496 289.781 149.53 289.651 149.585 289.527C149.641 289.41 149.709 289.3 149.792 289.217C149.875 289.134 149.971 289.066 150.081 289.017C150.191 288.969 150.301 288.949 150.425 288.949H150.418Z" fill="#262626"/>
<path d="M152.531 287.944V291.13C152.531 291.192 152.531 291.282 152.517 291.385C152.511 291.488 152.497 291.585 152.49 291.66H152.104V287.937H152.531V287.944ZM153.433 291.715C153.24 291.715 153.082 291.667 152.951 291.578C152.827 291.488 152.731 291.371 152.662 291.227C152.593 291.082 152.545 290.931 152.517 290.772C152.49 290.614 152.476 290.47 152.476 290.332C152.476 290.139 152.49 289.96 152.517 289.795C152.545 289.63 152.593 289.479 152.655 289.355C152.724 289.224 152.82 289.128 152.944 289.052C153.068 288.976 153.233 288.942 153.433 288.942C153.653 288.942 153.853 289.004 154.032 289.121C154.204 289.238 154.341 289.403 154.438 289.616C154.534 289.823 154.589 290.064 154.589 290.332C154.589 290.6 154.534 290.834 154.438 291.041C154.334 291.247 154.197 291.413 154.025 291.53C153.853 291.647 153.653 291.708 153.44 291.708L153.433 291.715ZM153.33 291.309C153.495 291.309 153.639 291.268 153.756 291.185C153.88 291.103 153.977 290.986 154.052 290.841C154.128 290.697 154.162 290.525 154.162 290.339C154.162 290.057 154.087 289.823 153.942 289.637C153.798 289.451 153.591 289.355 153.323 289.355C153.144 289.355 152.999 289.396 152.875 289.479C152.758 289.561 152.669 289.678 152.607 289.823C152.552 289.967 152.517 290.139 152.517 290.339C152.517 290.518 152.545 290.676 152.607 290.828C152.662 290.972 152.751 291.096 152.868 291.179C152.985 291.268 153.137 291.309 153.316 291.309H153.33Z" fill="#262626"/>
<path d="M157.012 290.807H157.411C157.383 290.979 157.321 291.137 157.225 291.275C157.129 291.413 156.998 291.523 156.84 291.598C156.681 291.681 156.502 291.715 156.296 291.715C156.048 291.715 155.828 291.653 155.628 291.536C155.429 291.419 155.27 291.254 155.16 291.048C155.043 290.841 154.988 290.6 154.988 290.339C154.988 290.077 155.043 289.836 155.153 289.623C155.264 289.41 155.415 289.251 155.615 289.128C155.807 289.004 156.027 288.949 156.275 288.949C156.537 288.949 156.75 289.004 156.929 289.121C157.108 289.238 157.239 289.403 157.328 289.623C157.418 289.843 157.452 290.119 157.432 290.442H155.415C155.436 290.614 155.484 290.766 155.559 290.896C155.635 291.027 155.738 291.13 155.869 291.199C156 291.275 156.144 291.309 156.303 291.309C156.482 291.309 156.64 291.261 156.764 291.165C156.888 291.068 156.977 290.945 157.025 290.793L157.012 290.807ZM156.282 289.348C156.062 289.348 155.876 289.41 155.732 289.54C155.58 289.664 155.484 289.843 155.436 290.064H156.991C156.977 289.83 156.902 289.651 156.764 289.534C156.626 289.417 156.468 289.355 156.282 289.355V289.348Z" fill="#262626"/>
<path d="M157.975 289.004H158.402V291.66H157.975V289.004ZM159.249 289.403C159.07 289.403 158.918 289.451 158.794 289.54C158.67 289.63 158.574 289.74 158.505 289.871C158.436 290.002 158.388 290.125 158.368 290.242V289.933C158.368 289.933 158.368 289.85 158.381 289.774C158.395 289.699 158.423 289.616 158.464 289.52C158.505 289.423 158.553 289.334 158.622 289.251C158.684 289.162 158.774 289.093 158.877 289.038C158.98 288.983 159.104 288.955 159.249 288.955V289.41V289.403Z" fill="#262626"/>
<path d="M160.46 290.594V289.671H160.591C160.873 289.671 161.086 289.609 161.224 289.485C161.361 289.362 161.437 289.183 161.437 288.962C161.437 288.756 161.375 288.591 161.251 288.467C161.127 288.35 160.969 288.288 160.776 288.288C160.653 288.288 160.542 288.315 160.439 288.37C160.343 288.426 160.26 288.501 160.205 288.591C160.15 288.687 160.123 288.797 160.123 288.928H159.696C159.696 288.811 159.71 288.701 159.744 288.598C159.778 288.494 159.827 288.398 159.895 288.309C159.964 288.219 160.04 288.15 160.129 288.088C160.219 288.026 160.322 287.978 160.432 287.944C160.542 287.909 160.666 287.889 160.797 287.889C160.962 287.889 161.107 287.916 161.238 287.971C161.368 288.026 161.478 288.102 161.568 288.198C161.657 288.295 161.733 288.412 161.781 288.536C161.829 288.666 161.857 288.804 161.857 288.955C161.857 289.169 161.816 289.348 161.733 289.499C161.651 289.651 161.534 289.768 161.382 289.85C161.238 289.933 161.065 289.988 160.887 290.008V290.594H160.46ZM160.398 291.66V291.137H160.942V291.66H160.398Z" fill="#262626"/>
<path d="M164.225 288.212V291.206H166.255V291.66H163.715V288.212H164.225Z" fill="#262626"/>
<path d="M168.024 291.722C167.762 291.722 167.528 291.667 167.308 291.557C167.095 291.447 166.923 291.289 166.792 291.082C166.668 290.876 166.599 290.628 166.599 290.346C166.599 290.064 166.661 289.809 166.792 289.602C166.923 289.396 167.095 289.238 167.308 289.128C167.521 289.017 167.762 288.962 168.024 288.962C168.285 288.962 168.519 289.017 168.733 289.128C168.946 289.238 169.118 289.396 169.242 289.602C169.373 289.809 169.435 290.057 169.435 290.346C169.435 290.635 169.373 290.876 169.242 291.082C169.111 291.289 168.946 291.447 168.733 291.557C168.519 291.667 168.285 291.722 168.024 291.722ZM168.024 291.282C168.182 291.282 168.333 291.247 168.471 291.172C168.609 291.096 168.719 290.993 168.801 290.855C168.884 290.717 168.925 290.545 168.925 290.346C168.925 290.146 168.884 289.974 168.801 289.83C168.719 289.685 168.609 289.582 168.471 289.506C168.333 289.43 168.189 289.396 168.024 289.396C167.859 289.396 167.714 289.43 167.576 289.506C167.439 289.582 167.329 289.685 167.239 289.83C167.157 289.974 167.108 290.146 167.108 290.353C167.108 290.559 167.15 290.717 167.232 290.862C167.315 291 167.425 291.11 167.563 291.179C167.7 291.254 167.852 291.289 168.017 291.289L168.024 291.282Z" fill="#262626"/>
<path d="M171.031 291.247C170.811 291.247 170.612 291.206 170.426 291.117C170.24 291.027 170.095 290.896 169.985 290.731C169.875 290.566 169.82 290.353 169.82 290.112C169.82 289.871 169.875 289.671 169.978 289.499C170.082 289.327 170.226 289.196 170.412 289.1C170.598 289.004 170.797 288.962 171.025 288.962C171.093 288.962 171.155 288.962 171.217 288.976C171.279 288.983 171.334 288.997 171.389 289.017H172.546V289.492C172.387 289.492 172.229 289.465 172.064 289.41C171.899 289.355 171.761 289.3 171.644 289.238L171.63 289.21C171.754 289.272 171.857 289.355 171.947 289.444C172.036 289.534 172.105 289.637 172.153 289.747C172.201 289.857 172.222 289.981 172.222 290.119C172.222 290.353 172.167 290.552 172.064 290.724C171.961 290.896 171.816 291.027 171.63 291.11C171.451 291.199 171.245 291.24 171.025 291.24L171.031 291.247ZM171.844 292.734V292.61C171.844 292.431 171.795 292.3 171.692 292.225C171.596 292.149 171.451 292.108 171.259 292.108H170.639C170.508 292.108 170.398 292.094 170.302 292.073C170.212 292.053 170.137 292.018 170.075 291.977C170.013 291.936 169.971 291.887 169.944 291.825C169.916 291.77 169.903 291.702 169.903 291.633C169.903 291.495 169.944 291.392 170.033 291.316C170.116 291.247 170.226 291.199 170.357 291.179C170.488 291.158 170.618 291.158 170.756 291.179L171.038 291.234C170.839 291.247 170.68 291.261 170.577 291.289C170.474 291.316 170.419 291.378 170.419 291.468C170.419 291.523 170.439 291.564 170.481 291.598C170.522 291.633 170.584 291.647 170.66 291.647H171.307C171.506 291.647 171.685 291.674 171.844 291.722C172.002 291.77 172.126 291.86 172.215 291.984C172.305 292.108 172.353 292.273 172.353 292.486V292.72H171.85L171.844 292.734ZM171.031 290.814C171.162 290.814 171.272 290.786 171.382 290.731C171.486 290.676 171.568 290.594 171.637 290.49C171.699 290.387 171.733 290.256 171.733 290.112C171.733 289.967 171.706 289.83 171.637 289.719C171.575 289.609 171.493 289.527 171.382 289.479C171.279 289.423 171.162 289.396 171.031 289.396C170.901 289.396 170.784 289.423 170.68 289.479C170.57 289.534 170.488 289.616 170.419 289.719C170.357 289.83 170.322 289.96 170.322 290.112C170.322 290.263 170.357 290.387 170.419 290.49C170.481 290.594 170.57 290.676 170.674 290.731C170.777 290.786 170.901 290.814 171.031 290.814Z" fill="#262626"/>
<path d="M174.404 288.212H174.913V291.66H174.404V288.212Z" fill="#262626"/>
<path d="M175.773 289.011H176.283V291.66H175.773V289.011ZM177.294 288.955C177.446 288.955 177.577 288.976 177.701 289.017C177.818 289.059 177.921 289.121 178.01 289.203C178.093 289.286 178.162 289.389 178.21 289.513C178.258 289.637 178.279 289.774 178.279 289.933V291.66H177.776V290.043C177.776 289.836 177.728 289.678 177.625 289.575C177.522 289.472 177.37 289.417 177.164 289.417C177.005 289.417 176.861 289.451 176.73 289.527C176.599 289.602 176.489 289.699 176.407 289.823C176.324 289.947 176.276 290.084 176.255 290.236V289.947C176.269 289.802 176.303 289.671 176.365 289.554C176.42 289.437 176.496 289.327 176.586 289.238C176.675 289.148 176.785 289.079 176.902 289.031C177.019 288.983 177.157 288.962 177.294 288.962V288.955Z" fill="#262626"/>
<path d="M341.477 387.83C331.421 385.799 324.973 375.957 327.072 365.84L354.815 232.264C356.914 222.147 366.77 215.595 376.825 217.618C386.881 219.649 393.33 229.491 391.231 239.608L363.487 373.184C361.388 383.301 351.532 389.853 341.477 387.83Z" fill="#FCEE21"/>
<path d="M345.138 388.545C343.906 388.545 342.661 388.422 341.415 388.174C336.487 387.183 332.241 384.32 329.467 380.121C326.666 375.882 325.695 370.789 326.741 365.785L354.485 232.209C356.618 221.927 366.674 215.23 376.901 217.295C381.829 218.286 386.076 221.149 388.849 225.347C391.65 229.587 392.621 234.68 391.575 239.684L363.831 373.259C361.959 382.289 353.975 388.545 345.138 388.545ZM341.546 387.499C351.401 389.488 361.092 383.039 363.157 373.122L390.9 239.546C391.905 234.721 390.969 229.814 388.271 225.726C385.601 221.679 381.512 218.926 376.763 217.969C366.908 215.98 357.217 222.429 355.152 232.347L327.409 365.923C326.404 370.747 327.34 375.655 330.038 379.743C332.709 383.79 336.797 386.543 341.546 387.499Z" fill="#262626"/>
<g opacity="0.2">
<path d="M359.426 258.273C359.426 258.273 354.051 344.546 330.155 380.514C330.155 380.514 338.435 393.535 354.76 385.51L359.426 258.273Z" fill="#171717"/>
</g>
<path d="M420.66 187.955C420.66 187.955 420.488 192.71 418.458 197.377C418.458 197.377 416.228 208.871 426.421 208.747C426.421 208.747 433.331 209.091 437.323 210.729C437.323 210.729 432.491 189.31 429.621 181.815H422.463L420.653 187.955H420.66Z" fill="#262626"/>
<g opacity="0.4">
<path d="M420.66 187.955C420.66 187.955 420.488 192.71 418.458 197.377C418.458 197.377 416.228 208.871 426.421 208.747C426.421 208.747 433.331 209.091 437.323 210.729C437.323 210.729 432.491 189.31 429.621 181.815H422.463L420.653 187.955H420.66Z" fill="#171717"/>
</g>
<path d="M381.567 211.045C381.567 211.045 381.43 211.066 381.182 211.114C369.117 213.344 360.259 223.723 359.839 235.988L354.368 397.183H508.694L470.407 238.204C468.659 230.936 464.13 224.652 457.805 220.674C449.195 215.264 436.614 208.678 426.421 208.74L381.567 211.045Z" fill="#FCEE21"/>
<path d="M509.128 397.527H354.01L359.495 235.981C359.915 223.62 369.007 213.014 381.12 210.777C381.375 210.729 381.519 210.708 381.519 210.708H381.554L426.407 208.396C426.455 208.396 426.503 208.396 426.552 208.396C436.772 208.396 449.278 214.907 457.984 220.378C464.426 224.432 468.955 230.729 470.737 238.121L509.128 397.527ZM354.719 396.839H508.254L470.063 238.28C468.328 231.067 463.903 224.914 457.612 220.956C448.982 215.533 436.6 209.077 426.558 209.077C426.51 209.077 426.462 209.077 426.414 209.077L381.595 211.383C381.554 211.383 381.43 211.41 381.237 211.445C369.44 213.626 360.583 223.95 360.177 235.995L354.712 396.832L354.719 396.839Z" fill="#262626"/>
<g opacity="0.2">
<path d="M354.368 397.183H508.694L455.086 267.035C455.086 267.035 453.304 280.249 460.82 308.433C460.82 308.433 465.988 342.722 459.409 341.318L403.647 333.933C403.647 333.933 396.943 329.679 356.068 350.058L354.368 397.183Z" fill="#171717"/>
</g>
<path d="M400.453 339.673C400.453 339.673 365.827 339.301 354.368 345.241L340.795 358.49L354.368 379.068L364.402 362.598C365.607 360.616 367.747 359.398 370.067 359.364C374.981 359.302 383.598 358.999 388.457 357.732C388.457 357.732 392.098 356.432 395.684 356.631C395.684 356.631 393.646 346.968 400.453 339.686V339.673Z" fill="white"/>
<path d="M354.375 379.708L340.348 358.441L354.203 344.938C365.607 339.026 399.035 339.322 400.453 339.335H401.231L400.701 339.914C394.1 346.975 395.993 356.459 396.014 356.556L396.103 356.996L395.656 356.968C392.173 356.783 388.595 358.042 388.56 358.056C383.618 359.35 374.85 359.646 370.06 359.708C367.844 359.735 365.834 360.885 364.685 362.777L354.368 379.715L354.375 379.708ZM341.236 358.538L354.347 378.421L364.1 362.413C365.373 360.313 367.603 359.047 370.053 359.013C374.809 358.951 383.515 358.655 388.36 357.388C388.477 357.347 391.774 356.17 395.271 356.26C394.988 354.339 394.218 346.383 399.682 340.017C394.52 340.024 364.926 340.203 354.567 345.523L341.236 358.538Z" fill="#262626"/>
<path d="M368.229 359.639C368.229 359.639 370.149 357.76 382.359 355.881C382.359 355.881 391.182 356.824 396.867 345.316C396.867 345.316 393.963 351.731 395.677 356.624C395.677 356.624 397.356 356.287 388.45 357.726C388.45 357.726 378.993 360.114 368.229 359.639Z" fill="#262626"/>
<path d="M287.201 287.297H295.185L368.229 397.183H361.498L287.201 287.297Z" fill="#CED9ED"/>
<path d="M368.876 397.527H361.319L361.216 397.376L286.554 286.953H295.371L295.474 287.104L368.876 397.527ZM361.684 396.839H367.589L294.999 287.641H287.841L361.677 396.839H361.684Z" fill="#262626"/>
<path d="M453.414 396.749V386.316L361.498 387.059L368.229 397.183C368.229 397.183 453.414 395.91 453.414 396.749Z" fill="#CED9ED"/>
<path d="M368.05 397.527L360.865 386.715L453.765 385.964V396.749H453.421L453.263 397.038C451.37 396.426 391.244 397.183 368.243 397.527H368.057H368.05ZM362.138 387.396L368.415 396.839C392.607 396.474 446.827 395.745 453.077 396.378V386.66L362.145 387.396H362.138Z" fill="#262626"/>
<path d="M418.451 197.37C418.451 197.37 415.98 208.63 426.414 208.74C426.414 208.74 433.558 214.955 407.253 228.575C407.253 228.575 388.464 239.849 385.642 224.817C385.642 224.817 384.231 218.788 385.642 212.642C385.642 212.642 407.563 219.717 418.444 197.37H418.451Z" fill="white"/>
<path d="M394.5 232.987C393.027 232.987 391.595 232.753 390.301 232.168C387.679 230.991 386 228.534 385.312 224.879C385.298 224.831 383.901 218.713 385.312 212.566L385.394 212.202L385.752 212.319C385.972 212.387 407.515 219.036 418.141 197.225L419.401 194.644L418.788 197.452C418.774 197.508 417.687 202.676 420.227 205.87C421.548 207.528 423.626 208.382 426.421 208.409H426.545L426.641 208.492C426.689 208.533 427.859 209.579 427.611 211.699C427.219 214.975 423.399 220.619 407.418 228.892C407.088 229.091 400.494 232.994 394.507 232.994L394.5 232.987ZM385.903 213.076C384.658 218.947 385.965 224.687 385.979 224.742C386.626 228.176 388.168 230.461 390.577 231.542C396.826 234.35 406.971 228.341 407.074 228.286C423.633 219.71 426.62 214.156 426.923 211.61C427.095 210.158 426.49 209.339 426.269 209.084C423.331 209.029 421.121 208.086 419.683 206.29C417.942 204.101 417.756 201.155 417.866 199.242C407.521 218.059 388.746 213.847 385.897 213.076H385.903Z" fill="#262626"/>
<path d="M385.649 212.642C385.649 212.642 381.698 233.4 394.479 232.629C394.479 232.629 398.801 233.269 407.26 228.575C407.26 228.575 431.954 216.62 426.421 208.74C426.421 208.74 425.533 208.74 424.384 208.554C424.384 208.554 425.581 213.544 417.123 219.181C417.123 219.181 398.333 234.68 392.228 230.922C392.228 230.922 387.528 229.043 386.592 217.77C386.592 217.77 396.785 227.157 418.465 202.731C418.465 202.731 417.907 199.985 418.458 197.37C418.458 197.37 409.614 218.788 385.656 212.642H385.649Z" fill="#262626"/>
<path d="M403.302 211.954C389.283 217.384 373.522 210.426 368.091 196.406L361.883 180.391L361.271 178.808C355.841 164.788 362.806 149.027 376.819 143.597C380.053 142.344 383.378 141.752 386.647 141.752C397.556 141.752 407.852 148.359 412.029 159.144L417.474 173.192L418.85 176.75C424.273 190.77 417.315 206.53 403.302 211.961V211.954Z" fill="white"/>
<path d="M393.46 214.149C389.675 214.149 385.903 213.358 382.338 211.789C375.6 208.815 370.432 203.399 367.768 196.53L360.954 178.925C358.298 172.063 358.47 164.568 361.443 157.837C364.416 151.099 369.833 145.93 376.702 143.266C379.895 142.028 383.247 141.394 386.654 141.394C397.948 141.394 408.279 148.476 412.353 159.007L419.174 176.612C424.659 190.783 417.597 206.778 403.426 212.264C400.198 213.516 396.826 214.143 393.46 214.143V214.149ZM386.647 142.09C383.323 142.09 380.06 142.702 376.942 143.913C370.246 146.508 364.967 151.553 362.062 158.119C359.165 164.685 358.993 171.987 361.588 178.684L368.401 196.289C370.996 202.986 376.041 208.265 382.607 211.169C389.173 214.074 396.475 214.239 403.172 211.644C416.985 206.296 423.874 190.701 418.527 176.881L411.706 159.275C407.728 149 397.659 142.096 386.647 142.096V142.09Z" fill="#262626"/>
<path d="M372.379 188.644C373.278 188.125 373.217 186.338 372.244 184.653C371.271 182.967 369.754 182.021 368.855 182.54C367.956 183.059 368.017 184.846 368.99 186.532C369.963 188.217 371.48 189.163 372.379 188.644Z" fill="#262626"/>
<path d="M395.293 184.848C396.309 184.635 396.81 182.919 396.412 181.014C396.014 179.109 394.868 177.737 393.852 177.949C392.836 178.161 392.335 179.877 392.733 181.783C393.131 183.688 394.277 185.06 395.293 184.848Z" fill="#262626"/>
<g opacity="0.5">
<path d="M395.043 198.044C399.715 198.044 403.502 194.679 403.502 190.529C403.502 186.378 399.715 183.013 395.043 183.013C390.372 183.013 386.585 186.378 386.585 190.529C386.585 194.679 390.372 198.044 395.043 198.044Z" fill="#EAEAEA"/>
</g>
<g opacity="0.5">
<path d="M371.319 201.802C376.379 201.802 380.48 198.437 380.48 194.286C380.48 190.136 376.379 186.771 371.319 186.771C366.26 186.771 362.159 190.136 362.159 194.286C362.159 198.437 366.26 201.802 371.319 201.802Z" fill="#EAEAEA"/>
</g>
<path d="M402.449 186.75L402.077 186.406L416.985 174.788L417.357 175.126L402.449 186.75Z" fill="#FCEE21"/>
<path d="M364.251 153.494C364.292 153.542 364.168 153.583 364.134 153.638C361.925 156.942 361.085 160.514 362.269 164.1C365.745 174.623 360.177 179.764 360.177 179.764C358.662 172.765 355.118 159.991 355.118 159.991C351.828 145.896 360.989 140.025 360.989 140.025C360.989 140.025 358.828 147.465 364.251 153.494Z" fill="#262626"/>
<g opacity="0.2">
<path d="M364.251 153.494C364.292 153.542 364.168 153.583 364.134 153.638C361.925 156.942 361.085 160.514 362.269 164.1C365.745 174.623 360.177 179.764 360.177 179.764C358.662 172.765 355.118 159.991 355.118 159.991C351.828 145.896 360.989 140.025 360.989 140.025C360.989 140.025 358.828 147.465 364.251 153.494Z" fill="#171717"/>
</g>
<path d="M445.781 214.48C445.781 214.48 442.023 212.133 437.323 210.722C437.323 210.722 432.264 188.595 429.621 181.808L417.474 173.185C417.474 173.185 391.237 184.307 382.958 167.885C382.648 167.266 382.387 166.633 382.139 165.986C380.721 162.283 372.558 142.475 364.251 153.494C364.134 153.37 362.647 151.842 361.505 149.364C361.505 149.364 361.505 149.362 361.505 149.357C360.122 146.357 359.241 141.966 361.911 137.017C362.937 135.118 364.375 133.473 366.061 132.11C372.758 126.707 396.764 109.535 414.782 124.752C414.782 124.752 424.645 132.736 428.878 147.3C428.878 147.3 430.289 154.347 437.805 159.984C437.805 159.984 438.183 160.032 438.699 160.197C440.826 160.858 445.279 163.322 435.451 171.258C435.451 171.258 440.619 182.531 445.788 214.473L445.781 214.48Z" fill="#262626"/>
<g opacity="0.2">
<path d="M445.781 214.48C445.781 214.48 442.023 212.133 437.323 210.722C437.323 210.722 432.264 188.595 429.621 181.808L417.474 173.185C417.474 173.185 391.237 184.307 382.958 167.885C382.648 167.266 382.386 166.633 382.139 165.986C380.721 162.283 372.558 142.475 364.251 153.494C364.127 153.391 362.221 151.801 361.505 149.364C361.505 149.364 361.505 149.362 361.505 149.357C361.505 149.357 369.681 141.67 375.318 150.589L384.713 164.685C384.713 164.685 391.292 179.248 409.607 169.386C409.607 169.386 417.591 162.806 429.339 163.749C429.339 163.749 436.407 165.318 438.692 160.204C440.819 160.865 445.272 163.329 435.444 171.264C435.444 171.264 440.613 182.538 445.781 214.48Z" fill="#171717"/>
</g>
<path d="M520.973 394.568C511.647 398.835 500.525 394.402 496.134 384.657L438.155 256.009C433.764 246.27 437.77 234.907 447.096 230.64C456.422 226.373 467.544 230.805 471.935 240.551L529.913 369.199C534.304 378.937 530.299 390.3 520.973 394.568Z" fill="#FCEE21"/>
<path d="M513.533 396.543C511.323 396.543 509.094 396.144 506.946 395.332C501.998 393.473 498.047 389.736 495.824 384.801L437.846 256.153C433.386 246.256 437.474 234.673 446.958 230.33C451.425 228.286 456.456 228.128 461.129 229.883C466.078 231.741 470.028 235.478 472.251 240.413L530.23 369.061C534.69 378.958 530.601 390.541 521.117 394.884C518.708 395.985 516.127 396.543 513.533 396.543ZM454.543 229.367C452.044 229.367 449.56 229.903 447.24 230.963C438.1 235.148 434.164 246.325 438.472 255.878L496.45 384.526C498.598 389.289 502.411 392.902 507.187 394.692C511.688 396.378 516.534 396.226 520.835 394.258C529.975 390.073 533.912 378.896 529.603 369.343L471.625 240.695C469.478 235.933 465.665 232.319 460.888 230.53C458.817 229.752 456.676 229.367 454.543 229.367Z" fill="#262626"/>
<path d="M532.563 382.826C530.065 392.854 519.975 398.938 510.036 396.412L409.29 370.823C399.352 368.297 393.323 358.125 395.828 348.09C398.326 338.062 408.416 331.978 418.354 334.504L519.101 360.093C529.039 362.619 535.068 372.791 532.563 382.826Z" fill="#FCEE21"/>
<path d="M514.6 397.328C513.051 397.328 511.496 397.135 509.954 396.743L409.208 371.153C399.104 368.586 392.951 358.2 395.491 348.007C396.73 343.038 399.82 338.867 404.183 336.252C408.506 333.671 413.564 332.928 418.43 334.167L519.176 359.756C529.28 362.323 535.433 372.709 532.893 382.902C531.654 387.871 528.564 392.042 524.201 394.657C521.248 396.426 517.944 397.328 514.6 397.328ZM413.791 334.27C410.563 334.27 407.384 335.144 404.541 336.844C400.329 339.363 397.356 343.382 396.158 348.173C393.708 358.001 399.634 368.015 409.373 370.486L510.119 396.075C514.806 397.266 519.686 396.55 523.843 394.065C528.055 391.546 531.028 387.527 532.226 382.737C534.676 372.908 528.75 362.894 519.011 360.423L418.265 334.834C416.785 334.456 415.285 334.27 413.791 334.27Z" fill="#262626"/>
<g opacity="0.2">
<path d="M368.422 140.5C375.008 138.586 381.478 143.053 385.546 147.891C389.076 152.4 392.029 157.321 395.05 162.18C391.471 157.74 388.374 152.95 384.837 148.49C380.804 143.789 374.953 139.405 368.429 140.5H368.422Z" fill="#171717"/>
</g>
<g opacity="0.2">
<path d="M389.875 144.023C393.743 150.644 399.909 155.531 406.393 159.42C407.336 159.977 408.299 160.486 409.242 161.065C401.245 158.153 393.027 152.172 389.875 144.023Z" fill="#171717"/>
</g>
<path d="M580.603 396.749H186.008V409.434H580.603V396.749Z" fill="white"/>
<path d="M580.94 409.771H185.664V396.398H580.94V409.771ZM186.345 409.083H580.252V397.087H186.352V409.083H186.345Z" fill="#262626"/>
<path d="M396.537 237.598C395.759 237.598 395.057 237.543 394.417 237.454C389.992 236.82 388.25 234.412 388.175 234.315C388.065 234.164 388.099 233.944 388.257 233.833C388.409 233.723 388.629 233.758 388.739 233.916C388.753 233.937 390.418 236.201 394.555 236.779C399.476 237.467 408.409 235.836 423.021 224.184C423.172 224.067 423.386 224.088 423.503 224.239C423.62 224.391 423.599 224.604 423.448 224.721C410.495 235.052 401.878 237.598 396.537 237.598Z" fill="#262626"/>
<path d="M424.778 187.438C429.116 186.36 431.514 180.985 430.134 175.434C428.754 169.882 424.118 166.256 419.78 167.334C415.442 168.412 413.044 173.787 414.424 179.339C415.804 184.89 420.44 188.517 424.778 187.438Z" fill="white"/>
<path d="M423.241 187.955C419.242 187.955 415.347 184.451 414.094 179.407C412.67 173.68 415.189 168.112 419.703 166.984C424.225 165.855 429.05 169.606 430.475 175.332C431.899 181.058 429.38 186.633 424.865 187.755C424.329 187.886 423.778 187.955 423.241 187.955ZM421.335 167.479C420.846 167.479 420.35 167.534 419.869 167.658C415.718 168.69 413.433 173.887 414.762 179.241C416.097 184.596 420.55 188.12 424.7 187.087C428.85 186.055 431.135 180.859 429.807 175.504C428.63 170.776 425.024 167.479 421.335 167.479Z" fill="#262626"/>
<path d="M345.827 363.823C345.744 363.823 345.655 363.796 345.593 363.734C345.455 363.603 345.448 363.39 345.579 363.245L354.113 354.105C354.244 353.968 354.464 353.961 354.602 354.092C354.739 354.222 354.746 354.436 354.616 354.58L346.081 363.72C346.012 363.796 345.923 363.83 345.827 363.83V363.823Z" fill="#262626"/>
<path d="M351.505 372.358C351.436 372.358 351.367 372.337 351.305 372.296C351.154 372.186 351.119 371.972 351.229 371.814L358.883 361.222C358.993 361.07 359.206 361.036 359.364 361.146C359.516 361.256 359.55 361.47 359.44 361.628L351.787 372.22C351.718 372.31 351.615 372.365 351.505 372.365V372.358Z" fill="#262626"/>
<path d="M162.986 287.297L235.287 397.183H361.498L287.201 287.297H162.986Z" fill="#CED9ED"/>
<path d="M362.145 397.527H235.101L162.346 286.953H287.38L287.484 287.104L362.145 397.527ZM235.472 396.839H360.851L287.016 287.641H163.626L235.472 396.839Z" fill="#262626"/>
<path d="M254.592 347.89C262.894 347.89 269.623 345.052 269.623 341.552C269.623 338.051 262.894 335.213 254.592 335.213C246.29 335.213 239.561 338.051 239.561 341.552C239.561 345.052 246.29 347.89 254.592 347.89Z" fill="white"/>
<path d="M254.592 348.235C245.968 348.235 239.216 345.296 239.216 341.552C239.216 337.808 245.968 334.869 254.592 334.869C263.216 334.869 269.968 337.808 269.968 341.552C269.968 345.296 263.216 348.235 254.592 348.235ZM254.592 335.55C246.629 335.55 239.905 338.296 239.905 341.545C239.905 344.793 246.629 347.539 254.592 347.539C262.555 347.539 269.279 344.793 269.279 341.545C269.279 338.296 262.555 335.55 254.592 335.55Z" fill="#262626"/>
<g opacity="0.2">
<path d="M162.986 287.297L218.727 372.014L283.677 287.297H162.986Z" fill="white"/>
</g>
<path d="M365.69 183.116C365.648 183.116 365.607 183.116 365.573 183.096C365.394 183.027 365.304 182.834 365.366 182.655C365.38 182.621 366.791 178.959 371.423 180.439C371.602 180.494 371.705 180.694 371.643 180.872C371.588 181.051 371.388 181.155 371.209 181.093C367.211 179.813 366.054 182.765 366.006 182.889C365.951 183.027 365.82 183.116 365.683 183.116H365.69Z" fill="#262626"/>
<path d="M387.418 206.826C384.135 206.826 381.561 204.789 381.519 204.755C381.375 204.638 381.347 204.418 381.471 204.273C381.588 204.128 381.808 204.101 381.953 204.225C382.201 204.424 388.058 209.036 393.164 203.316C393.288 203.172 393.509 203.165 393.653 203.289C393.798 203.413 393.805 203.633 393.681 203.777C391.602 206.104 389.386 206.833 387.424 206.833L387.418 206.826Z" fill="#262626"/>
<path d="M383.075 198.148C382.992 198.148 382.91 198.12 382.848 198.058C382.772 197.996 382.731 197.9 382.731 197.803V185.587C382.731 185.394 382.882 185.243 383.075 185.243C383.267 185.243 383.419 185.394 383.419 185.587V197.411L386.784 197.019C386.97 197.005 387.142 197.136 387.163 197.322C387.184 197.508 387.046 197.68 386.86 197.7L383.116 198.134C383.116 198.134 383.088 198.134 383.075 198.134V198.148Z" fill="#262626"/>
<path d="M371.319 202.036C366.137 202.036 361.925 198.561 361.925 194.286C361.925 190.012 366.137 186.537 371.319 186.537C376.502 186.537 380.714 190.012 380.714 194.286C380.714 198.561 376.502 202.036 371.319 202.036ZM371.319 187.005C366.398 187.005 362.393 190.274 362.393 194.286C362.393 198.299 366.398 201.568 371.319 201.568C376.24 201.568 380.246 198.299 380.246 194.286C380.246 190.274 376.24 187.005 371.319 187.005Z" fill="#FCEE21"/>
<path d="M395.043 198.278C390.253 198.278 386.351 194.803 386.351 190.529C386.351 186.255 390.246 182.779 395.043 182.779C399.841 182.779 403.736 186.255 403.736 190.529C403.736 194.803 399.841 198.278 395.043 198.278ZM395.043 183.247C390.508 183.247 386.826 186.516 386.826 190.529C386.826 194.541 390.515 197.81 395.043 197.81C399.572 197.81 403.261 194.541 403.261 190.529C403.261 186.516 399.572 183.247 395.043 183.247Z" fill="#FCEE21"/>
<path d="M379.778 191.203L379.413 190.9C379.441 190.866 382.435 187.335 386.736 189.558L386.523 189.978C382.559 187.934 379.888 191.065 379.778 191.203Z" fill="#FCEE21"/>
<path d="M423.654 183.116C423.654 183.116 423.64 183.116 423.633 183.116C423.441 183.109 423.296 182.944 423.31 182.751C423.654 176.13 419.938 174.073 419.896 174.059C419.731 173.969 419.662 173.763 419.752 173.591C419.841 173.426 420.055 173.357 420.22 173.446C420.392 173.536 424.363 175.731 423.998 182.786C423.991 182.972 423.84 183.109 423.654 183.109V183.116Z" fill="#262626"/>
</svg>
