<svg width="512" height="512" viewBox="0 0 512 512" fill="none" xmlns="http://www.w3.org/2000/svg">
<path d="M240.469 81.16L228.222 0H48.5408C21.4848 0 0 22.044 0 49.0968V388.872C0 415.925 21.484 437.522 48.5408 437.522H218.984L341.778 251.6V119.013L240.469 81.16Z" fill="#00ACEA"/>
<path d="M228.223 0.109375L341.445 119.01H266.076C245.145 119.01 228.223 102.088 228.223 81.1566V0.109375Z" fill="#00EFD1"/>
<path d="M223.882 254.944H78.8219C72.7003 254.944 67.6875 259.956 67.6875 266.078C67.6875 272.203 72.7003 277.209 78.8219 277.209H223.882C230.003 277.209 235.016 272.203 235.016 266.078C235.016 259.956 230.119 254.944 223.882 254.944ZM78.8219 221.547H191.598C197.719 221.547 202.731 216.537 202.731 210.412C202.731 204.29 197.719 199.281 191.597 199.281H78.8219C72.7003 199.281 67.6875 204.29 67.6875 210.412C67.6875 216.537 72.7003 221.547 78.8219 221.547ZM187.253 311.721H78.8219C72.7003 311.721 67.6875 316.734 67.6875 322.852C67.6875 328.978 72.7003 333.987 78.8219 333.987H187.254C193.379 333.987 198.388 328.978 198.388 322.852C198.388 316.734 193.379 311.721 187.253 311.721Z" fill="#083863"/>
<path d="M341.444 229.45C410.468 239.131 463.568 298.359 463.568 370.053C463.568 448.429 400.003 512 321.628 512C267.747 512 220.765 481.941 196.828 437.632C185.918 417.482 179.684 394.438 179.684 369.944C179.684 291.568 243.252 228 321.628 228C328.309 228.112 334.875 228.56 341.444 229.45Z" fill="#FEDB41"/>
<path d="M329.533 287.891C327.421 285.666 324.523 284.328 321.408 284.328C318.289 284.328 315.395 285.666 313.28 287.891L248.039 357.919C243.811 362.372 244.145 369.497 248.599 373.613C250.711 375.619 253.498 376.622 256.17 376.622C259.173 376.622 262.289 375.394 264.517 373.059L310.608 323.738V445.313C310.608 451.435 315.617 456.447 321.739 456.447C327.864 456.447 332.873 451.435 332.873 445.313V323.737L378.629 373.059C382.861 377.513 389.764 377.843 394.326 373.613C398.78 369.384 399.001 362.372 394.883 357.919L329.533 287.891Z" fill="#083863"/>
</svg>
