<svg width="69" height="76" viewBox="0 0 69 76" fill="none" xmlns="http://www.w3.org/2000/svg">
<path d="M34.8004 0.649414C24.4504 0.649414 16.0504 9.04941 16.0504 19.3994C16.0504 29.5494 24.0004 37.7994 34.5504 38.0994H35.4504C40.304 37.9398 44.9055 35.8999 48.2829 32.4105C51.6603 28.9212 53.5491 24.2556 53.5504 19.3994C53.5504 9.04941 45.1504 0.649414 34.8004 0.649414ZM68.7004 62.7494C59.4727 71.2784 47.366 76.0104 34.8004 75.9994C21.7004 75.9994 9.80039 70.9494 0.900391 62.7494C2.10039 58.1994 5.35039 54.0494 10.1004 50.8494C23.7504 41.7494 45.9504 41.7494 59.5004 50.8494C64.3004 54.0494 67.5004 58.1994 68.7004 62.7494Z" fill="#A3A3A3"/>
</svg>
